<?xml version="1.0" standalone="no"?>
<!DOCTYPE svg PUBLIC "-//W3C//DTD SVG 20010904//EN"
 "http://www.w3.org/TR/2001/REC-SVG-20010904/DTD/svg10.dtd">
<svg version="1.0" xmlns="http://www.w3.org/2000/svg"
 width="16.000000pt" height="16.000000pt" viewBox="0 0 16.000000 16.000000"
 preserveAspectRatio="xMidYMid meet">
<metadata>
Created by potrace 1.11, written by Peter Selinger 2001-2013
</metadata>
<g transform="translate(0.000000,16.000000) scale(0.003501,-0.003501)"
fill="#000000" stroke="none">
<path d="M2237 4529 c-6 -19 -33 -77 -59 -129 -76 -155 -184 -269 -302 -320
-35 -15 -46 -24 -39 -33 39 -50 78 -103 79 -105 1 -2 26 4 55 12 81 23 109 24
164 8 147 -43 215 -192 229 -500 1 -23 4 -43 7 -46 2 -3 32 -8 65 -11 l61 -7
-2 164 c-1 90 -5 177 -9 193 -3 17 -8 53 -11 80 -3 28 -8 57 -10 65 -2 8 -7
31 -10 50 -12 68 -55 229 -88 327 -33 94 -104 273 -113 282 -2 3 -10 -11 -17
-30z"/>
<path d="M1586 4158 c144 -152 228 -343 233 -534 l2 -70 -83 -51 c-155 -95
-263 -178 -372 -285 -99 -98 -140 -134 -105 -91 8 9 13 19 12 22 -4 9 16 69
43 129 13 29 24 55 24 57 0 2 22 42 49 88 76 127 165 232 292 342 l47 40 -34
73 c-19 39 -38 72 -42 72 -9 0 -117 -88 -172 -141 -67 -64 -171 -191 -226
-275 -49 -74 -142 -255 -148 -287 -2 -7 -10 -37 -20 -68 -9 -31 -19 -66 -21
-78 -2 -13 -7 -31 -10 -41 -8 -25 -14 -73 -21 -155 -3 -38 -7 -72 -9 -73 -9
-10 -94 83 -119 129 -74 139 -111 293 -131 549 -7 88 -6 87 -21 40 -32 -99
-42 -172 -39 -293 2 -67 6 -135 10 -151 37 -172 74 -283 142 -426 25 -52 48
-108 52 -125 l7 -30 127 0 127 -1 11 40 c36 140 104 282 190 396 57 75 153
175 199 207 14 10 34 25 44 35 11 10 23 18 27 18 4 0 14 6 21 13 19 18 198
110 198 101 0 -3 6 -2 13 3 11 10 75 33 100 37 37 5 42 43 21 156 -2 14 -7 39
-9 56 -8 53 -62 209 -99 281 -71 142 -180 255 -305 316 -49 24 -50 22 -5 -25z"/>
<path d="M3130 3848 c-137 -21 -290 -70 -447 -144 -54 -26 -111 -49 -128 -53
l-29 -7 -1 -119 c0 -116 6 -142 36 -146 5 -1 12 -2 17 -3 124 -33 285 -112
390 -192 97 -73 252 -242 252 -273 0 -6 4 -11 8 -11 5 0 22 -26 38 -57 16 -32
32 -60 35 -63 7 -6 36 -79 55 -140 25 -75 36 -100 43 -95 4 2 33 7 65 10 83 9
113 16 236 52 226 67 419 216 486 378 l16 40 -54 -52 c-139 -131 -328 -212
-513 -219 l-81 -3 -18 32 c-26 45 -148 230 -161 243 -5 6 -21 26 -35 45 -13
19 -72 82 -130 140 -105 104 -106 106 -66 94 231 -71 477 -234 612 -405 l46
-58 66 29 c37 17 71 34 76 39 12 12 -51 93 -142 185 -262 266 -557 411 -897
441 -38 4 -72 8 -74 10 -11 10 104 106 158 134 127 63 345 109 543 114 49 1
62 9 31 19 -106 33 -140 39 -253 41 -69 2 -150 -1 -180 -6z"/>
<path d="M2247 3624 c-1 -2 -44 -4 -94 -6 l-93 -3 6 -95 c3 -52 6 -101 6 -108
1 -10 18 -11 72 -6 39 3 89 8 111 9 22 2 43 3 48 4 8 1 0 188 -9 202 -4 7 -41
9 -47 3z"/>
<path d="M2985 3010 c-3 -6 1 -7 9 -4 18 7 21 14 7 14 -6 0 -13 -4 -16 -10z"/>
<path d="M2666 2968 c3 -5 10 -6 15 -3 13 9 11 12 -6 12 -8 0 -12 -4 -9 -9z"/>
<path d="M2615 2961 c-3 -5 -2 -12 3 -15 5 -3 9 1 9 9 0 17 -3 19 -12 6z"/>
<path d="M2400 2950 c-12 -7 -10 -9 7 -7 12 0 19 5 17 9 -6 10 -6 10 -24 -2z"/>
<path d="M2696 2952 c-3 -4 4 -9 15 -9 23 -2 25 3 4 10 -8 4 -16 3 -19 -1z"/>
<path d="M2830 2951 c0 -6 4 -13 10 -16 6 -3 7 1 4 9 -7 18 -14 21 -14 7z"/>
<path d="M2273 2935 c0 -8 4 -12 9 -9 5 3 6 10 3 15 -9 13 -12 11 -12 -6z"/>
<path d="M2210 2929 c0 -5 5 -7 10 -4 6 3 10 8 10 11 0 2 -4 4 -10 4 -5 0 -10
-5 -10 -11z"/>
<path d="M2495 2911 c-3 -5 -2 -12 3 -15 5 -3 9 1 9 9 0 17 -3 19 -12 6z"/>
<path d="M2774 2912 c8 -13 -6 -43 -20 -44 -5 -1 -17 -3 -27 -6 -15 -4 -16 -7
-5 -13 10 -7 8 -9 -7 -10 -11 -1 -27 -1 -35 0 -12 1 -12 0 1 -9 16 -9 16 -12
0 -44 -14 -26 -16 -46 -11 -85 5 -44 4 -54 -11 -62 -24 -13 -42 -11 -33 3 5 7
3 8 -5 3 -24 -14 5 -30 33 -17 19 9 27 8 37 -4 10 -12 9 -13 -7 -8 -14 5 -11
0 8 -18 15 -14 24 -29 20 -34 -4 -4 0 -4 8 2 22 15 37 12 54 -11 15 -20 15
-20 10 1 -6 23 34 47 63 38 14 -5 15 -4 4 4 -11 8 -8 16 18 41 53 52 82 118
79 177 -2 29 -6 50 -10 48 -3 -2 -10 5 -13 17 -6 17 -9 19 -16 8 -5 -8 -9 -9
-9 -3 0 13 -93 13 -102 -1 -5 -6 -8 -3 -8 7 0 9 -5 20 -12 24 -7 4 -8 3 -4 -4z"/>
<path d="M2995 2899 c-4 -6 -5 -12 -2 -15 2 -3 7 2 10 11 7 17 1 20 -8 4z"/>
<path d="M2130 2892 c-8 -3 -18 -9 -21 -14 -3 -5 -15 -10 -27 -11 -11 0 -18
-5 -16 -9 3 -5 -4 -16 -16 -26 -11 -9 -22 -30 -24 -47 -2 -16 -5 -31 -6 -32
-1 -2 -3 -20 -4 -40 -2 -47 -13 -68 -30 -54 -8 7 -12 4 -12 -9 0 -18 2 -18 23
-4 23 14 23 14 19 -11 -3 -14 0 -25 5 -25 6 0 8 -4 5 -9 -3 -5 7 -14 24 -19
22 -8 28 -15 24 -29 -3 -10 1 -7 9 7 17 29 28 29 38 3 7 -16 8 -15 8 5 1 12 5
22 10 22 4 0 25 16 46 36 36 34 40 35 52 18 7 -10 13 -13 13 -8 0 6 -6 16 -12
22 -9 9 -10 15 -2 20 6 4 13 15 17 25 4 10 11 15 17 12 6 -3 7 1 4 10 -4 8 -2
21 4 28 15 18 8 84 -11 105 -10 10 -17 23 -17 28 0 10 -94 14 -120 6z"/>
<path d="M2261 2883 c-1 -17 16 -25 25 -12 4 7 3 9 -4 5 -5 -3 -13 0 -15 6 -4
9 -6 10 -6 1z"/>
<path d="M2015 2869 c-3 -4 2 -6 10 -5 21 3 28 13 10 13 -9 0 -18 -4 -20 -8z"/>
<path d="M2513 2857 c0 -8 6 -14 14 -14 9 0 10 4 2 14 -6 7 -12 13 -14 13 -1
0 -2 -6 -2 -13z"/>
<path d="M1945 2850 c-3 -6 1 -7 9 -4 18 7 21 14 7 14 -6 0 -13 -4 -16 -10z"/>
<path d="M2385 2830 c-3 -6 1 -7 9 -4 18 7 21 14 7 14 -6 0 -13 -4 -16 -10z"/>
<path d="M2433 2825 c0 -8 4 -12 9 -9 5 3 6 10 3 15 -9 13 -12 11 -12 -6z"/>
<path d="M2620 2836 c0 -2 8 -10 18 -17 15 -13 16 -12 3 4 -13 16 -21 21 -21
13z"/>
<path d="M1995 2821 c-3 -5 -2 -12 3 -15 5 -3 9 1 9 9 0 17 -3 19 -12 6z"/>
<path d="M1673 2805 c0 -8 4 -12 9 -9 5 3 6 10 3 15 -9 13 -12 11 -12 -6z"/>
<path d="M2400 2816 c0 -2 8 -10 18 -17 15 -13 16 -12 3 4 -13 16 -21 21 -21
13z"/>
<path d="M2973 2801 c0 -11 5 -18 9 -15 4 3 5 11 1 19 -7 21 -12 19 -10 -4z"/>
<path d="M3010 2809 c0 -5 5 -7 10 -4 6 3 10 8 10 11 0 2 -4 4 -10 4 -5 0 -10
-5 -10 -11z"/>
<path d="M2554 2796 c1 -8 5 -18 8 -22 4 -3 5 1 4 10 -1 8 -5 18 -8 22 -4 3
-5 -1 -4 -10z"/>
<path d="M1856 2792 c-3 -4 4 -9 15 -9 23 -2 25 3 4 10 -8 4 -16 3 -19 -1z"/>
<path d="M2355 2792 c3 -3 -1 -12 -7 -21 -8 -10 -4 -9 10 3 26 23 26 23 7 23
-8 0 -13 -3 -10 -5z"/>
<path d="M2506 2792 c-2 -4 4 -8 14 -8 10 0 16 4 14 8 -3 4 -9 8 -14 8 -5 0
-11 -4 -14 -8z"/>
<path d="M2591 2783 c7 -12 15 -20 18 -17 3 2 -3 12 -13 22 -17 16 -18 16 -5
-5z"/>
<path d="M2647 2789 c7 -7 15 -10 18 -7 3 3 -2 9 -12 12 -14 6 -15 5 -6 -5z"/>
<path d="M1900 2776 c0 -2 8 -10 18 -17 15 -13 16 -12 3 4 -13 16 -21 21 -21
13z"/>
<path d="M1990 2776 c0 -2 7 -7 16 -10 8 -3 12 -2 9 4 -6 10 -25 14 -25 6z"/>
<path d="M2379 2763 c-13 -17 -13 -17 6 -3 11 8 22 16 24 17 2 2 0 3 -6 3 -6
0 -17 -8 -24 -17z"/>
<path d="M2416 2763 c-6 -14 -5 -15 5 -6 7 7 10 15 7 18 -3 3 -9 -2 -12 -12z"/>
<path d="M2473 2765 c0 -8 4 -12 9 -9 4 3 8 9 8 15 0 5 -4 9 -8 9 -5 0 -9 -7
-9 -15z"/>
<path d="M3235 2759 c-16 -10 -24 -19 -17 -19 7 0 10 -5 6 -12 -4 -7 -3 -8 5
-4 6 4 8 12 5 18 -5 8 -1 9 12 4 10 -4 15 -4 11 0 -4 4 -2 13 4 21 15 17 11
16 -26 -8z"/>
<path d="M1425 2750 c3 -4 -3 -11 -13 -15 -14 -5 -9 -14 32 -51 28 -24 53 -44
58 -44 4 0 8 -7 8 -16 0 -8 4 -13 8 -10 5 3 18 -4 30 -14 12 -11 25 -20 30
-20 4 0 18 -9 30 -20 12 -12 22 -18 22 -15 0 4 21 -5 48 -18 42 -23 78 -38 92
-41 3 -1 11 -5 18 -9 6 -5 12 -6 12 -2 0 3 13 -1 30 -10 16 -8 29 -21 27 -28
-1 -7 9 -12 23 -12 15 0 24 5 22 13 -1 9 9 11 40 6 84 -11 91 -13 78 -29 -7
-8 -17 -15 -22 -15 -7 0 -6 5 0 13 8 10 6 13 -8 14 -11 1 -22 -2 -25 -8 -3 -5
0 -6 8 -3 8 3 14 -2 15 -11 6 -56 -1 -79 -28 -83 -14 -2 -20 0 -15 7 3 6 12 8
18 5 7 -4 9 -4 5 1 -4 4 -3 16 3 26 7 14 5 23 -10 36 -11 9 -18 20 -15 24 7
12 -23 4 -40 -10 -13 -11 -22 -11 -41 -3 -27 12 -39 3 -29 -22 5 -12 2 -15
-12 -10 -15 5 -16 4 -4 -4 19 -14 32 -5 25 19 -6 17 -4 18 19 8 21 -10 29 -9
44 4 17 16 20 15 40 -8 22 -25 22 -25 2 -45 -11 -11 -17 -25 -14 -33 6 -18
-41 -16 -58 2 -11 11 -9 12 9 7 12 -4 24 -3 27 2 3 5 -6 10 -19 10 -32 0 -39
-12 -19 -32 14 -14 14 -16 0 -16 -8 0 -20 8 -25 18 -6 9 -11 12 -11 5 0 -6 -7
-19 -16 -28 -16 -15 -16 -16 1 -13 10 2 20 -3 23 -11 3 -9 0 -11 -9 -6 -8 5
-11 5 -7 0 8 -8 -16 -60 -33 -70 -6 -4 -10 -1 -8 6 3 26 -1 39 -12 39 -7 0 -8
-5 -3 -12 14 -19 11 -51 -5 -56 -8 -3 -11 0 -7 7 5 7 1 9 -9 5 -11 -5 -14 -2
-9 10 3 9 10 13 15 10 5 -3 9 0 9 6 0 18 -21 7 -39 -20 -9 -13 -11 -21 -4 -17
6 4 24 -3 39 -16 l27 -24 -31 0 c-25 0 -29 3 -21 14 8 9 8 13 0 13 -6 0 -11
-5 -11 -11 0 -5 -6 -7 -12 -3 -9 5 -8 2 1 -9 8 -10 10 -21 6 -25 -4 -4 -10 -1
-12 6 -3 6 -9 12 -15 12 -5 0 0 -14 12 -31 12 -16 25 -27 28 -24 4 3 1 10 -6
14 -17 11 13 36 43 36 19 1 22 -4 20 -29 -3 -40 -75 -113 -75 -75 0 5 4 8 8 5
4 -2 8 4 8 14 0 10 -3 17 -6 15 -3 -2 -16 12 -30 32 -22 32 -25 33 -37 17 -13
-18 -9 -34 10 -34 9 0 9 2 0 8 -8 5 -9 13 -3 22 6 8 10 10 10 4 0 -6 9 -21 20
-34 25 -28 26 -41 3 -34 -11 4 -14 3 -7 -3 14 -10 27 -46 14 -38 -5 3 -16 -7
-25 -22 -10 -17 -14 -20 -11 -8 5 19 5 19 -7 1 -31 -49 -101 -116 -111 -106
-5 5 -15 10 -20 10 -6 0 -3 -5 7 -11 23 -13 22 -26 -3 -34 -11 -4 -18 -10 -15
-15 7 -11 -22 -33 -34 -26 -5 3 -11 -1 -14 -9 -4 -9 -1 -12 9 -8 7 3 14 0 14
-6 0 -6 -4 -11 -9 -11 -13 0 -29 -51 -24 -78 4 -28 27 -54 39 -44 5 4 3 0 -4
-10 -10 -12 -10 -18 -1 -24 8 -4 9 -3 5 4 -8 13 -6 13 74 17 30 1 57 3 60 4 3
2 18 5 34 7 23 4 27 2 22 -11 -3 -10 -2 -14 5 -10 5 4 18 1 27 -7 15 -11 15
-11 5 3 -10 12 -9 18 7 32 24 20 44 22 35 5 -4 -7 -1 -6 7 3 7 9 23 14 35 13
13 -2 22 1 20 7 -1 6 10 12 25 13 15 1 37 10 49 21 12 11 19 14 15 8 -9 -17
-1 -16 34 2 16 8 35 14 42 13 7 -2 12 2 11 9 -2 7 4 10 13 6 9 -3 20 0 24 7 5
8 17 15 26 16 10 2 25 11 32 21 7 10 18 17 23 16 5 -2 9 2 9 8 0 5 5 7 10 4
15 -9 1 -27 -17 -21 -8 3 -11 1 -8 -5 4 -5 15 -7 25 -4 10 3 21 1 25 -5 3 -5
-1 -10 -9 -10 -9 0 -16 -5 -16 -10 0 -17 33 5 36 24 1 9 -2 14 -6 11 -5 -3
-12 4 -15 16 -8 23 11 42 32 35 13 -5 26 21 17 35 -3 5 0 9 6 9 6 0 8 5 5 10
-4 6 -3 9 2 8 4 -2 10 2 11 7 2 6 9 19 15 30 6 11 10 25 9 31 -1 7 4 14 13 18
18 7 20 -10 3 -18 -7 -3 -4 -4 8 -1 13 3 27 -2 39 -15 10 -11 13 -20 7 -20 -6
0 -14 5 -17 10 -3 6 -11 10 -16 10 -6 0 -4 -7 5 -15 20 -21 24 -20 61 21 23
24 34 31 38 22 3 -7 6 -8 6 -3 1 17 -48 67 -59 60 -6 -4 -7 -11 -4 -17 5 -8 1
-9 -12 -4 -15 6 -16 5 -7 -5 10 -10 15 -9 28 1 8 7 15 8 15 2 0 -5 -6 -15 -14
-21 -10 -9 -19 -7 -37 8 l-24 19 25 12 c19 8 26 19 25 38 -1 15 2 35 7 44 10
21 39 13 31 -9 -5 -12 -8 -12 -15 -1 -7 9 -8 8 -4 -6 4 -10 1 -25 -5 -32 -8
-10 -8 -14 0 -14 6 0 11 5 11 11 0 5 4 8 10 4 5 -3 7 -11 4 -18 -2 -7 9 -26
26 -42 21 -20 26 -31 18 -36 -7 -5 -10 -10 -8 -13 3 -2 16 3 29 13 23 18 24
19 6 42 -9 13 -15 17 -12 7 9 -26 -3 -28 -29 -5 -29 25 -30 33 -3 40 14 4 29
-2 45 -18 13 -13 24 -20 24 -15 0 5 -6 15 -14 23 -19 19 -24 49 -8 54 7 3 10
-1 7 -10 -10 -23 17 -35 45 -21 18 10 20 14 8 14 -9 0 -20 -5 -23 -10 -7 -12
-25 -4 -25 11 0 6 5 7 10 4 6 -3 10 -1 10 6 0 7 3 9 6 6 7 -7 44 30 44 44 0 5
-9 17 -21 28 l-20 19 20 15 c12 8 34 13 49 11 15 -2 35 -1 45 2 18 6 17 7 -2
21 -12 8 -18 19 -15 25 4 7 2 8 -4 4 -15 -9 -15 -12 4 -30 10 -11 11 -16 3
-16 -6 0 -18 8 -25 18 -12 16 -14 16 -34 -5 -26 -28 -35 -29 -37 -2 -2 16 1
18 11 10 10 -9 15 -8 20 5 8 21 8 24 -5 24 -5 0 -7 -4 -4 -10 3 -5 2 -10 -3
-10 -11 0 -25 30 -17 38 3 3 5 1 5 -4 0 -5 56 -9 127 -8 71 0 134 -4 141 -9 7
-6 12 -6 12 0 0 5 7 10 15 10 11 0 12 -4 4 -14 -9 -9 -8 -13 0 -13 7 0 9 -5 5
-12 -4 -7 -3 -10 1 -5 5 4 10 15 11 25 2 9 5 29 7 44 2 16 0 26 -7 25 -6 -1
-12 9 -14 23 -2 14 -6 32 -9 40 -3 8 -7 22 -9 30 -16 83 -16 80 3 73 23 -8 15
1 -16 17 -13 6 -21 8 -18 3 4 -5 0 -10 -8 -10 -8 0 -12 4 -9 8 9 15 -41 -1
-53 -16 -6 -10 -14 -12 -17 -6 -4 5 -2 12 4 16 5 3 7 17 4 31 -4 14 -2 24 5
24 6 0 10 -5 8 -11 -1 -6 5 -14 13 -16 12 -4 12 -3 2 5 -8 5 -13 13 -13 18 1
5 -5 9 -11 9 -8 0 -12 -11 -11 -28 2 -24 0 -27 -13 -17 -10 9 -14 9 -14 1 0
-6 4 -11 8 -11 4 0 8 -12 8 -26 0 -24 -1 -24 -13 -8 -13 17 -14 17 -17 -8 -1
-12 -6 -14 -49 -17 -10 0 -16 -5 -12 -10 3 -5 0 -13 -6 -17 -8 -4 -9 -3 -5 4
4 7 3 12 -2 12 -6 0 -13 -8 -16 -17 -6 -15 -8 -15 -24 0 -15 16 -15 19 11 44
15 15 27 23 27 16 0 -6 -7 -16 -15 -23 -8 -7 -15 -18 -15 -24 0 -6 7 -3 14 7
8 10 18 19 23 20 4 1 7 7 5 12 -7 22 -20 25 -36 9 -9 -9 -20 -13 -24 -9 -4 3
1 13 12 20 18 13 18 14 -2 12 -11 0 -18 -5 -16 -9 3 -4 0 -8 -5 -8 -6 0 -11 8
-12 18 0 11 -2 12 -6 4 -3 -7 2 -21 11 -31 9 -10 14 -25 11 -34 -4 -8 -2 -18
4 -22 6 -3 11 -12 11 -18 -1 -7 -9 -2 -19 10 -10 12 -26 21 -36 20 -10 -1 -20
3 -22 9 -2 7 6 10 22 9 14 -2 25 1 25 6 0 6 -14 8 -31 5 -23 -3 -29 -1 -25 9
3 8 0 12 -7 9 -7 -2 -13 6 -13 21 -1 16 5 26 17 30 10 4 19 11 19 16 0 5 6 8
13 6 6 -1 12 5 11 14 -1 16 22 19 44 5 7 -4 16 -5 19 -2 4 3 1 6 -5 6 -7 0
-12 7 -12 15 0 8 5 15 11 15 5 0 7 -5 3 -12 -4 -7 -3 -8 4 -4 7 4 12 14 12 22
0 8 5 12 10 9 6 -3 10 -1 10 5 0 6 5 8 12 4 6 -4 8 -3 5 3 -4 6 0 13 8 17 8 3
15 11 15 18 0 9 -3 8 -10 -2 -5 -8 -10 -11 -10 -6 0 6 -6 1 -14 -10 -8 -10
-18 -16 -22 -11 -4 4 -2 13 4 19 25 25 10 25 -17 0 -61 -57 -81 -66 -81 -36 0
8 5 12 10 9 6 -3 13 1 16 10 4 10 13 14 23 10 13 -5 14 -4 3 7 -11 11 -16 10
-27 -5 -7 -10 -17 -19 -22 -20 -4 -1 -8 -10 -7 -19 0 -10 -6 -18 -13 -18 -9 0
-11 -5 -7 -12 6 -10 4 -10 -7 0 -16 14 -39 16 -39 2 0 -5 8 -7 18 -3 13 5 12
1 -5 -16 -12 -11 -29 -21 -37 -21 -8 0 -22 -7 -30 -16 -9 -8 -16 -10 -16 -4 0
6 7 13 15 16 13 5 13 9 3 22 -10 12 -10 16 0 19 6 3 12 9 12 14 0 5 -9 4 -19
-3 -14 -8 -17 -16 -10 -24 12 -14 -11 -62 -28 -57 -6 2 -14 -1 -18 -7 -5 -8
-11 -8 -21 1 -12 9 -13 9 -9 -3 4 -10 -2 -15 -22 -16 -28 -1 -51 -5 -108 -18
-16 -3 -37 -6 -45 -7 -8 0 -21 -5 -29 -11 -11 -8 -13 -8 -8 0 4 7 0 15 -9 18
-8 3 -12 2 -9 -4 3 -6 -1 -7 -9 -4 -9 3 -16 10 -16 15 0 5 -6 9 -14 9 -8 0
-23 11 -34 25 -11 13 -22 21 -26 18 -3 -3 -6 -1 -6 5 0 7 5 12 12 12 6 0 8 3
5 6 -4 4 -13 1 -22 -6 -13 -11 -15 -9 -16 11 -1 13 -1 28 0 32 1 5 -3 6 -8 2
-6 -3 -8 -12 -4 -20 4 -11 1 -13 -11 -9 -9 3 -16 14 -16 23 0 14 -2 14 -10 1
-8 -13 -10 -12 -10 3 0 10 -4 16 -9 12 -5 -3 -15 1 -23 8 -7 7 -24 13 -37 14
-31 2 -39 12 -21 24 12 8 10 9 -6 4 -14 -3 -28 1 -38 10 -9 9 -16 14 -16 10 0
-3 -6 0 -14 7 -8 7 -11 18 -8 23 3 6 -2 4 -11 -4 -12 -9 -17 -10 -17 -2 0 7
-4 10 -9 6 -5 -3 -15 0 -23 7 -7 7 -24 14 -38 16 -14 1 -27 7 -28 12 -2 6 -8
8 -13 4 -5 -3 -9 0 -9 6 0 6 -4 8 -10 5 -5 -3 -26 -2 -45 4 -19 5 -33 6 -30 1z
m983 -263 c-2 -6 8 -27 21 -45 13 -18 20 -36 17 -39 -3 -4 -6 0 -6 8 0 12 -2
11 -10 -1 -5 -8 -7 -24 -4 -35 4 -16 -2 -24 -28 -36 -45 -20 -70 -18 -83 8 -7
13 -16 19 -23 14 -8 -5 -4 -15 12 -34 13 -15 25 -26 27 -24 2 1 3 0 2 -2 -1
-2 6 -16 16 -30 17 -24 17 -27 3 -41 -14 -13 -15 -12 -9 3 3 9 2 19 -4 22 -5
4 -7 12 -3 18 3 7 -4 1 -15 -12 -12 -13 -21 -21 -21 -18 0 3 -3 13 -6 22 -4 9
-3 15 2 14 22 -4 35 2 28 12 -4 8 -9 7 -16 -2 -8 -11 -9 -11 -5 2 4 11 -2 15
-21 15 -14 -1 -27 5 -30 13 -3 8 0 11 7 7 10 -6 16 6 12 27 -1 4 6 10 14 13 8
3 12 10 9 15 -7 11 7 11 25 0 8 -5 11 -16 8 -26 -5 -10 -3 -14 5 -9 7 5 9 2 4
-7 -4 -8 0 -5 8 5 14 18 20 15 17 -6 0 -4 6 -5 15 -1 13 5 13 7 2 14 -11 7
-11 9 0 9 9 0 11 7 7 23 -6 21 -6 21 9 3 13 -16 13 -22 3 -29 -9 -6 -8 -7 3
-4 8 2 13 11 11 18 -4 15 -4 23 1 54 2 15 -2 19 -19 18 -13 -2 -23 2 -23 7 0
6 4 10 9 10 5 0 12 8 15 17 6 15 4 15 -14 -2 -22 -20 -28 -13 -7 10 15 18 39
19 35 2z m322 3 c0 -5 -5 -10 -11 -10 -5 0 -7 5 -4 10 3 6 8 10 11 10 2 0 4
-4 4 -10z m-836 -45 c3 -10 -1 -15 -13 -15 -10 0 -18 7 -18 15 0 8 6 15 13 15
6 0 14 -7 18 -15z m470 -1 c4 -10 13 -13 26 -9 22 7 25 -2 9 -25 -9 -12 -10
-11 -4 5 5 16 4 17 -6 8 -7 -7 -13 -22 -14 -34 -1 -20 -33 -37 -36 -21 -6 28
-5 52 1 52 15 0 19 -14 7 -29 -10 -14 -10 -14 5 -3 21 17 16 48 -7 44 -12 -2
-15 1 -9 10 4 8 3 10 -2 5 -5 -5 -9 -12 -9 -15 0 -4 -4 -13 -9 -21 -7 -10 -6
-12 4 -6 9 5 11 4 6 -4 -4 -6 -12 -9 -17 -6 -13 9 -45 -17 -44 -35 0 -8 -8
-21 -18 -28 -17 -13 -17 -14 0 -27 10 -7 21 -11 25 -9 4 2 9 0 12 -5 4 -5 2
-12 -4 -16 -5 -3 -10 -11 -10 -16 0 -6 4 -8 9 -5 16 10 20 -21 6 -41 -13 -17
-14 -17 -15 0 0 9 6 17 13 17 8 0 8 3 -2 9 -8 5 -23 8 -33 6 -12 -3 -18 1 -15
8 2 7 9 12 15 12 20 0 21 11 2 12 -11 1 -20 -3 -20 -9 0 -16 -13 -1 -16 18 -2
11 4 13 19 9 19 -5 19 -4 -3 9 -14 9 -19 15 -12 16 7 0 11 4 7 9 -7 12 -53
-30 -47 -43 3 -4 8 -3 12 4 5 8 10 8 14 2 9 -15 -21 -23 -33 -8 -6 7 -8 16 -4
19 3 4 0 7 -7 7 -18 0 51 59 77 66 13 3 21 10 18 14 -4 7 19 22 37 24 4 1 15
11 23 24 19 26 40 29 49 6z m136 -56 c0 -6 -7 -5 -15 2 -8 7 -15 17 -15 22 0
6 7 5 15 -2 8 -7 15 -17 15 -22z m-468 9 c-12 -7 -20 -16 -16 -20 4 -3 1 -13
-6 -22 -8 -10 -9 -15 -1 -15 6 0 11 -5 11 -11 0 -5 -4 -7 -10 -4 -6 4 -7 -1
-3 -11 4 -11 3 -15 -5 -10 -6 3 -15 -2 -21 -11 -6 -11 -11 -13 -11 -5 0 7 -5
10 -11 6 -16 -10 10 -24 30 -16 14 5 14 3 2 -11 -11 -14 -11 -20 0 -34 10 -11
10 -14 2 -9 -8 4 -13 1 -13 -9 0 -9 -4 -14 -9 -11 -4 3 -7 17 -6 31 3 24 -4
29 -33 26 -10 -2 -9 5 4 24 9 14 23 24 30 21 14 -5 23 11 37 69 5 22 19 35 35
35 13 -1 12 -4 -6 -13z m446 -15 c2 -7 -2 -10 -12 -6 -10 4 -16 1 -16 -7 0
-11 -3 -11 -10 1 -14 22 -12 27 12 26 12 0 23 -7 26 -14z m-415 -9 c-5 -12 -3
-14 7 -8 9 6 11 4 5 -5 -6 -10 -4 -12 9 -7 14 5 17 3 13 -8 -4 -8 -2 -17 3
-20 6 -4 10 0 11 7 0 10 2 10 6 0 2 -6 10 -9 16 -5 7 4 6 -1 -2 -10 -10 -13
-17 -15 -27 -6 -16 13 -44 -4 -44 -27 0 -8 -4 -14 -10 -14 -12 0 -2 29 19 55
15 19 15 19 -2 5 -16 -12 -19 -12 -17 1 1 7 2 23 0 34 l-1 20 -8 -20 c-5 -11
-4 -28 1 -37 6 -12 5 -18 -2 -18 -6 0 -8 -5 -5 -10 4 -6 1 -18 -7 -27 -8 -10
-8 -14 -1 -10 6 4 15 2 19 -5 4 -7 4 -10 -1 -6 -4 4 -13 1 -19 -7 -7 -10 -16
-12 -25 -6 -11 7 -12 13 -3 23 9 11 9 18 -1 28 -9 10 -9 11 0 6 13 -7 32 20
31 44 -2 37 3 50 22 50 14 0 18 -5 13 -17z m19 -85 c-7 -7 -12 -8 -12 -2 0 6
3 14 7 17 3 4 9 5 12 2 2 -3 -1 -11 -7 -17z m-185 1 c29 13 41 8 25 -12 -9
-10 -8 -17 0 -25 9 -9 9 -12 1 -12 -7 0 -15 9 -18 21 -6 19 -7 20 -20 2 -10
-13 -10 -21 -2 -31 8 -11 7 -13 -4 -12 -36 6 -42 0 -24 -20 20 -22 8 -28 -15
-7 -8 6 -6 2 4 -10 19 -23 19 -23 -1 -23 -15 0 -20 6 -18 23 4 33 3 32 25 57
18 21 19 25 5 32 -8 5 -15 14 -15 20 0 7 6 6 15 -2 12 -10 21 -10 42 -1z m483
-14 c-8 -9 -9 -15 -2 -15 6 0 14 5 17 10 8 13 25 13 25 -1 0 -5 -4 -8 -9 -4
-5 3 -12 1 -15 -4 -4 -5 -2 -12 4 -16 6 -4 7 -11 4 -17 -4 -7 -9 -6 -14 2 -5
8 -9 7 -13 -4 -4 -9 -3 -15 1 -15 18 3 35 -2 29 -8 -12 -11 -58 -13 -51 -2 3
6 -7 4 -24 -5 -16 -8 -33 -12 -36 -8 -4 3 -4 -1 0 -11 4 -11 0 -19 -10 -23
-13 -5 -14 -10 -5 -20 6 -7 8 -18 5 -23 -4 -5 -2 -12 2 -15 5 -3 8 -22 6 -43
-2 -25 0 -32 7 -23 5 8 9 10 9 5 0 -6 -5 -16 -10 -21 -7 -7 -2 -18 15 -34 24
-23 25 -23 45 -5 30 27 34 12 5 -15 l-26 -24 -25 27 c-14 15 -29 25 -33 22
-10 -6 -7 47 3 63 4 7 3 12 -2 12 -5 0 -10 11 -11 25 -3 48 -4 55 -13 55 -4 0
-8 7 -8 15 0 8 -13 34 -29 57 -27 40 -32 66 -10 52 5 -3 7 -10 4 -15 -6 -8 8
-13 28 -10 4 0 7 -3 7 -9 0 -21 2 -25 16 -33 18 -10 16 -12 42 31 11 19 23 29
26 23 4 -5 -4 -20 -16 -32 -13 -12 -17 -19 -11 -15 7 4 23 9 35 11 28 6 40 26
26 43 -9 10 -8 16 3 23 20 13 23 11 9 -6z m100 1 c0 5 5 1 11 -9 8 -13 7 -22
-1 -33 -7 -8 -8 -14 -3 -14 6 0 9 -10 9 -22 -1 -13 7 -34 18 -46 l21 -24 -24
-19 c-13 -11 -31 -17 -39 -14 -8 3 -22 0 -31 -7 -13 -10 -14 -10 -4 1 6 7 9
20 6 27 -3 10 0 12 10 8 8 -3 18 -1 22 5 3 6 11 11 17 11 6 0 3 -10 -8 -22
-19 -22 -19 -23 1 -8 11 8 21 15 23 16 1 1 0 8 -4 17 -5 15 -8 15 -27 2 -15
-11 -24 -12 -34 -3 -19 15 -16 44 5 45 10 1 19 -5 19 -13 0 -9 -6 -13 -16 -9
-12 5 -13 3 -4 -6 13 -13 37 -3 28 12 -4 5 0 9 7 9 8 0 6 5 -4 11 -10 5 -18
15 -18 20 0 6 5 7 10 4 13 -8 9 17 -4 27 -5 3 -11 16 -13 29 -3 18 -1 20 12 9
8 -7 15 -9 15 -4z m-41 -22 c-10 -12 -10 -15 2 -12 8 2 14 -3 13 -9 -3 -37 -5
-43 -11 -42 -21 3 -32 -2 -27 -15 3 -8 1 -17 -5 -21 -6 -3 -14 1 -17 9 -3 9
-10 16 -16 16 -5 0 -7 -4 -4 -9 3 -5 -10 -9 -29 -9 -19 0 -35 4 -35 9 0 10 0
10 50 13 19 1 40 5 46 8 12 8 12 37 0 56 -4 7 -4 12 1 11 21 -4 34 2 27 13 -4
7 -3 8 5 4 9 -6 9 -11 0 -22z m-504 -10 c8 11 16 16 16 10 5 -36 4 -64 -4 -64
-4 0 -5 -5 -2 -10 4 -6 3 -10 -2 -9 -18 3 -34 -1 -29 -9 2 -4 -4 -9 -15 -9
-12 -1 -17 3 -13 9 4 7 2 8 -4 4 -6 -4 -8 -14 -5 -23 5 -12 3 -14 -7 -8 -10 6
-12 4 -7 -8 3 -9 1 -19 -5 -23 -7 -5 -8 -2 -3 6 5 9 4 11 -3 6 -7 -4 -12 -14
-12 -22 0 -8 -4 -13 -8 -10 -4 2 -8 17 -7 33 0 20 5 28 17 27 10 -1 20 7 24
18 4 13 12 18 25 15 10 -3 17 -2 14 3 -3 4 3 7 12 6 10 0 18 4 18 11 0 6 3 15
8 19 4 4 7 12 7 18 0 6 -5 3 -11 -6 -9 -17 -12 -17 -34 -2 -14 9 -22 20 -19
26 3 5 12 1 20 -9 13 -17 15 -17 29 1z m635 -24 c0 -5 -4 -10 -10 -10 -5 0
-10 5 -10 10 0 6 5 10 10 10 6 0 10 -4 10 -10z m-677 -8 c3 10 9 9 22 -3 16
-16 15 -17 -16 -15 -19 1 -35 8 -37 16 -4 13 -3 13 10 2 13 -10 17 -10 21 0z
m-77 -86 c-1 -30 -5 -52 -9 -49 -5 3 -6 12 -2 20 3 9 -2 24 -11 34 -14 15 -14
21 -4 34 21 25 26 17 26 -39z m529 14 c3 0 3 4 0 10 -3 6 1 7 9 4 12 -5 13
-11 5 -25 -5 -10 -12 -19 -15 -19 -3 0 -2 5 1 10 3 6 4 10 1 10 -3 0 -10 -10
-17 -21 -6 -12 -7 -19 -1 -15 5 3 8 -5 7 -17 -1 -12 -3 -29 -4 -36 -1 -20 -20
-1 -24 24 -1 11 -7 26 -11 34 -6 9 -5 12 0 8 6 -3 15 2 21 12 9 14 8 18 -3 18
-7 0 -10 -5 -7 -11 3 -7 1 -6 -7 1 -18 17 -3 35 20 23 10 -5 21 -10 25 -10z
m75 5 c18 0 20 -47 2 -53 -7 -2 -12 0 -11 5 3 19 -2 33 -12 33 -6 0 -7 -5 -2
-12 11 -18 10 -32 -2 -41 -5 -4 1 -6 14 -5 13 2 25 -2 28 -7 4 -12 -41 -14
-52 -3 -4 3 -2 15 4 27 9 16 8 22 -4 29 -10 5 -13 15 -9 25 3 10 11 14 18 10
6 -4 18 -8 26 -8z m40 -165 c0 -5 -5 -10 -11 -10 -5 0 -7 5 -4 10 3 6 8 10 11
10 2 0 4 -4 4 -10z m-738 -362 c-7 -7 -12 -8 -12 -2 0 6 3 14 7 17 3 4 9 5 12
2 2 -3 -1 -11 -7 -17z"/>
<path d="M2280 2331 c0 -6 4 -13 10 -16 6 -3 7 1 4 9 -7 18 -14 21 -14 7z"/>
<path d="M2202 2343 c-15 -16 -19 -21 -9 -13 11 8 29 14 41 12 15 -2 17 0 7 6
-11 8 -11 10 0 15 10 4 10 6 2 6 -7 1 -25 -11 -41 -26z"/>
<path d="M2005 2250 c3 -5 8 -10 11 -10 2 0 4 5 4 10 0 6 -5 10 -11 10 -5 0
-7 -4 -4 -10z"/>
<path d="M2230 2210 c13 -24 17 -25 17 -5 0 8 -6 16 -14 19 -11 4 -11 1 -3
-14z"/>
<path d="M2264 2170 c0 -10 6 -16 13 -13 7 3 13 9 13 13 0 4 -6 10 -13 13 -7
3 -13 -3 -13 -13z"/>
<path d="M2430 2219 c0 -5 5 -7 10 -4 6 3 10 8 10 11 0 2 -4 4 -10 4 -5 0 -10
-5 -10 -11z"/>
<path d="M2315 2070 c3 -5 8 -10 11 -10 2 0 4 5 4 10 0 6 -5 10 -11 10 -5 0
-7 -4 -4 -10z"/>
<path d="M1794 2752 c4 -3 14 -7 22 -8 9 -1 13 0 10 4 -4 3 -14 7 -22 8 -9 1
-13 0 -10 -4z"/>
<path d="M2507 2751 c13 -16 6 -44 -10 -34 -6 4 -7 1 -2 -7 6 -10 11 -10 20 3
7 9 14 14 17 11 3 -2 8 2 12 11 3 10 2 14 -5 10 -5 -4 -18 -1 -27 6 -14 11
-15 11 -5 0z"/>
<path d="M2628 2748 c7 -7 8 -17 2 -28 -6 -12 -5 -17 5 -17 7 0 11 7 7 15 -4
11 -1 13 9 7 8 -5 5 1 -5 13 -11 12 -22 22 -25 22 -3 0 0 -5 7 -12z"/>
<path d="M2337 2730 c-3 -11 0 -23 5 -27 7 -4 8 -1 3 7 -6 10 -4 12 10 6 16
-6 16 -4 4 11 -7 10 -14 19 -15 21 -1 1 -4 -6 -7 -18z"/>
<path d="M2406 2731 c-3 -4 13 -6 34 -6 21 0 36 2 34 5 -8 7 -64 8 -68 1z"/>
<path d="M2556 2723 c-6 -14 -5 -15 5 -6 7 7 10 15 7 18 -3 3 -9 -2 -12 -12z"/>
<path d="M4015 2709 c-22 -17 -48 -37 -59 -44 -17 -13 -17 -15 -1 -66 29 -86
24 -149 -17 -224 -56 -104 -215 -159 -488 -169 -34 -1 -35 -3 -38 -44 -2 -23
-7 -40 -11 -38 -11 7 -8 -38 3 -46 11 -7 330 -3 343 5 4 3 35 8 67 12 169 18
485 103 632 171 18 7 51 22 75 33 l44 19 -30 12 c-181 76 -324 169 -386 251
-32 42 -79 129 -79 146 0 19 -11 16 -55 -18z"/>
<path d="M3095 2721 c-3 -5 -2 -12 3 -15 5 -3 9 1 9 9 0 17 -3 19 -12 6z"/>
<path d="M3196 2721 c-4 -6 -4 -15 -1 -21 3 -6 -1 -7 -9 -4 -9 3 -16 10 -16
16 0 5 -5 6 -11 3 -6 -4 -8 -14 -4 -22 4 -12 2 -13 -8 -5 -10 9 -19 7 -35 -9
-12 -11 -22 -15 -22 -8 0 7 -8 3 -18 -9 -17 -19 -19 -19 -30 -4 -6 9 -11 13
-11 7 3 -24 -2 -36 -11 -30 -5 3 -10 1 -10 -6 0 -7 -10 -9 -25 -7 -13 3 -23 2
-21 -1 3 -4 -13 -16 -35 -28 -22 -12 -37 -18 -34 -13 3 4 -1 10 -9 13 -9 4
-12 0 -9 -11 5 -23 -34 -47 -52 -32 -10 8 -15 8 -21 -1 -4 -7 -3 -9 4 -5 15 9
26 -14 13 -27 -9 -9 -14 -8 -21 3 -7 11 -10 12 -10 2 0 -8 9 -16 20 -19 22 -6
26 -18 9 -29 -8 -4 -8 -8 0 -13 5 -4 17 -23 26 -44 15 -36 15 -37 -7 -38 -22
0 -22 -1 2 -10 l25 -10 -25 -15 c-23 -14 -23 -14 -2 -9 20 6 21 4 12 -20 -9
-23 -7 -28 10 -32 11 -3 20 -9 20 -14 0 -5 7 -6 15 -3 8 4 12 10 9 15 -3 5 0
9 5 9 6 0 11 7 11 15 0 8 6 15 14 15 8 0 18 5 22 12 4 7 3 8 -4 4 -21 -13 -13
8 13 37 14 15 23 27 19 27 -3 0 4 9 17 21 13 11 17 17 10 13 -9 -4 -6 6 8 24
12 18 27 32 32 32 5 0 8 6 7 13 -2 6 5 11 14 11 10 -1 15 2 12 7 -9 16 17 51
33 45 13 -5 14 -4 4 8 -7 8 -8 16 -4 18 4 1 29 28 55 58 31 37 44 60 39 69 -6
9 -11 10 -15 2z"/>
<path d="M1959 2703 c-13 -16 -12 -17 4 -4 16 13 21 21 13 21 -2 0 -10 -8 -17
-17z"/>
<path d="M2310 2714 c0 -5 7 -18 15 -28 8 -11 15 -16 15 -10 0 5 -7 18 -15 28
-8 11 -15 16 -15 10z"/>
<path d="M1993 2695 c0 -8 4 -12 9 -9 5 3 6 10 3 15 -9 13 -12 11 -12 -6z"/>
<path d="M2426 2694 c-9 -24 -2 -26 12 -4 7 11 8 20 3 20 -5 0 -12 -7 -15 -16z"/>
<path d="M2570 2704 c0 -7 52 -25 57 -20 2 2 -10 8 -26 14 -17 6 -31 9 -31 6z"/>
<path d="M3029 2693 c-13 -16 -12 -17 4 -4 9 7 17 15 17 17 0 8 -8 3 -21 -13z"/>
<path d="M2545 2689 c-4 -6 -5 -12 -2 -15 2 -3 7 2 10 11 7 17 1 20 -8 4z"/>
<path d="M2288 2683 c6 -2 9 -10 6 -15 -4 -7 -2 -8 5 -4 13 9 5 26 -12 25 -9
0 -8 -2 1 -6z"/>
<path d="M2254 2669 c-4 -7 -3 -9 4 -5 6 4 12 -3 14 -16 2 -13 9 -22 16 -20 6
1 12 -8 12 -20 0 -20 -1 -21 -20 -3 -11 10 -22 16 -24 14 -2 -2 7 -12 20 -22
21 -16 25 -16 30 -3 8 21 -3 49 -16 41 -5 -3 -10 3 -10 14 0 24 -16 36 -26 20z"/>
<path d="M2350 2669 c0 -5 5 -7 10 -4 6 3 10 8 10 11 0 2 -4 4 -10 4 -5 0 -10
-5 -10 -11z"/>
<path d="M2380 2676 c0 -2 7 -6 15 -10 8 -3 15 -1 15 4 0 6 -7 10 -15 10 -8 0
-15 -2 -15 -4z"/>
<path d="M2470 2669 c0 -5 5 -7 10 -4 6 3 10 8 10 11 0 2 -4 4 -10 4 -5 0 -10
-5 -10 -11z"/>
<path d="M2500 2676 c0 -2 7 -6 15 -10 8 -3 15 -1 15 4 0 6 -7 10 -15 10 -8 0
-15 -2 -15 -4z"/>
<path d="M2919 2678 c-7 -23 -4 -35 7 -35 9 0 11 4 4 12 -5 7 -7 15 -3 18 3 4
3 7 0 7 -4 0 -7 -1 -8 -2z"/>
<path d="M2950 2666 c7 -7 13 -7 20 0 6 6 3 10 -10 10 -13 0 -16 -4 -10 -10z"/>
<path d="M1796 2657 c3 -10 9 -15 12 -12 3 3 0 11 -7 18 -10 9 -11 8 -5 -6z"/>
<path d="M1830 2650 c0 -5 5 -10 11 -10 5 0 7 5 4 10 -3 6 -8 10 -11 10 -2 0
-4 -4 -4 -10z"/>
<path d="M2310 2655 c0 -5 5 -17 10 -25 5 -8 10 -10 10 -5 0 6 -5 17 -10 25
-5 8 -10 11 -10 5z"/>
<path d="M2367 2653 c-4 -3 -7 -11 -7 -17 0 -6 5 -4 10 4 9 13 12 13 21 -3 6
-9 15 -14 21 -11 7 5 9 1 5 -9 -3 -10 -2 -17 4 -17 6 0 9 7 7 16 -2 8 -7 14
-12 14 -5 -1 -13 5 -18 14 -10 17 -20 20 -31 9z"/>
<path d="M2430 2646 c7 -7 13 -7 20 0 6 6 3 10 -10 10 -13 0 -16 -4 -10 -10z"/>
<path d="M2215 2630 c3 -5 8 -10 11 -10 2 0 4 5 4 10 0 6 -5 10 -11 10 -5 0
-7 -4 -4 -10z"/>
<path d="M1889 2613 c-13 -16 -12 -17 4 -4 9 7 17 15 17 17 0 8 -8 3 -21 -13z"/>
<path d="M1840 2616 c0 -2 8 -10 18 -17 15 -13 16 -12 3 4 -13 16 -21 21 -21
13z"/>
<path d="M1953 2603 c0 -7 4 -13 8 -13 4 0 9 6 12 13 3 8 0 14 -7 14 -7 0 -13
-6 -13 -14z"/>
<path d="M2196 2605 c5 -11 2 -14 -12 -9 -15 6 -16 4 -7 -6 6 -7 16 -9 22 -6
14 9 15 36 1 36 -5 0 -7 -7 -4 -15z"/>
<path d="M2370 2610 c0 -5 5 -10 10 -10 6 0 10 5 10 10 0 6 -4 10 -10 10 -5 0
-10 -4 -10 -10z"/>
<path d="M2590 2610 c-13 -8 -12 -10 3 -10 9 0 17 5 17 10 0 12 -1 12 -20 0z"/>
<path d="M2230 2601 c0 -6 8 -11 17 -11 9 0 13 -3 10 -6 -3 -4 0 -16 8 -27 10
-15 11 -26 4 -41 -9 -19 -9 -19 4 -4 8 10 18 14 22 10 5 -4 5 -1 1 6 -4 6 -2
12 3 12 6 0 11 5 11 11 0 8 -6 7 -17 -2 -15 -12 -16 -12 -11 3 4 9 0 22 -10
31 -27 23 -42 29 -42 18z"/>
<path d="M2654 2602 c5 -8 0 -11 -15 -9 -17 1 -22 -4 -24 -21 -1 -13 4 -26 12
-29 7 -3 10 -10 6 -16 -3 -6 -1 -7 5 -3 16 10 15 26 -1 26 -7 0 -13 9 -13 20
0 14 5 18 17 15 20 -7 34 10 18 21 -8 4 -9 3 -5 -4z"/>
<path d="M2559 2593 c0 -5 -3 -17 -5 -28 -10 -39 -9 -58 4 -62 6 -3 12 0 12 7
0 6 -5 8 -12 4 -8 -5 -9 0 -4 17 12 42 17 69 11 69 -3 0 -5 -3 -6 -7z"/>
<path d="M2147 2577 c-3 -8 1 -14 9 -14 16 0 19 13 5 21 -5 3 -11 0 -14 -7z"/>
<path d="M2357 2576 c-4 -10 -3 -15 3 -11 6 3 10 1 10 -6 0 -7 3 -10 6 -6 3 3
2 13 -4 22 -8 16 -9 16 -15 1z"/>
<path d="M1906 2571 c8 -9 44 -11 44 -3 0 4 -11 8 -25 8 -13 0 -22 -2 -19 -5z"/>
<path d="M1970 2568 c0 -4 4 -8 9 -8 6 0 12 4 15 8 3 5 -1 9 -9 9 -8 0 -15 -4
-15 -9z"/>
<path d="M2013 2566 c3 -8 2 -17 -4 -20 -5 -2 -4 -3 2 -2 15 3 21 36 7 36 -6
0 -8 -6 -5 -14z"/>
<path d="M2191 2561 c-14 -10 -32 -17 -40 -14 -14 4 -14 3 -2 -5 10 -7 21 -7
33 -1 24 13 24 -6 1 -20 -10 -6 -13 -10 -8 -11 20 0 38 18 32 34 -4 9 1 20 11
25 9 6 13 10 7 10 -5 1 -21 -8 -34 -18z"/>
<path d="M2583 2573 c4 -3 2 -12 -4 -20 -9 -9 -8 -17 0 -27 6 -7 9 -20 6 -28
-6 -16 19 -48 37 -48 6 0 0 9 -13 20 -23 19 -23 21 -6 34 17 13 16 14 -3 19
-11 3 -20 11 -20 17 0 9 4 9 18 -1 14 -11 15 -11 5 0 -6 7 -9 20 -6 27 3 8 -1
14 -8 14 -7 0 -9 -3 -6 -7z"/>
<path d="M2660 2570 c-8 -5 -10 -10 -5 -10 6 0 17 5 25 10 8 5 11 10 5 10 -5
0 -17 -5 -25 -10z"/>
<path d="M2835 2570 c-3 -5 -1 -10 4 -10 6 0 11 5 11 10 0 6 -2 10 -4 10 -3 0
-8 -4 -11 -10z"/>
<path d="M1550 2551 c0 -6 4 -13 10 -16 6 -3 7 1 4 9 -7 18 -14 21 -14 7z"/>
<path d="M2095 2550 c-9 -15 5 -32 21 -26 7 3 16 1 19 -4 4 -6 11 -10 18 -10
6 0 2 6 -8 14 -11 8 -25 12 -32 9 -9 -4 -11 0 -7 11 7 18 -1 22 -11 6z"/>
<path d="M2238 2542 c20 -22 25 -21 16 2 -3 9 -12 16 -20 16 -11 0 -10 -4 4
-18z"/>
<path d="M2490 2556 c0 -2 6 -9 14 -15 11 -9 16 -9 22 0 4 8 3 9 -4 5 -7 -4
-12 -2 -12 3 0 6 -4 11 -10 11 -5 0 -10 -2 -10 -4z"/>
<path d="M2724 2549 c-5 -8 -3 -9 6 -4 10 6 12 4 7 -8 -3 -10 -2 -17 3 -17 13
0 13 27 1 35 -5 3 -13 0 -17 -6z"/>
<path d="M2030 2531 c0 -5 5 -13 12 -17 7 -4 8 -3 4 4 -4 7 -3 12 3 12 5 0 12
-5 14 -10 3 -6 4 -5 3 2 -3 16 -36 24 -36 9z"/>
<path d="M2220 2530 c0 -5 5 -10 11 -10 5 0 7 5 4 10 -3 6 -8 10 -11 10 -2 0
-4 -4 -4 -10z"/>
<path d="M2468 2528 c-10 -7 -10 -8 2 -7 8 1 23 -1 33 -6 27 -11 29 -1 2 11
-14 7 -28 8 -37 2z"/>
<path d="M3160 2530 c-8 -5 -10 -10 -5 -10 6 0 17 5 25 10 8 5 11 10 5 10 -5
0 -17 -5 -25 -10z"/>
<path d="M1944 2518 c3 -15 26 -23 26 -8 0 6 -4 9 -9 6 -5 -4 -12 -1 -14 4 -3
6 -4 5 -3 -2z"/>
<path d="M1998 2517 c24 -14 20 -29 -6 -20 -10 4 -13 2 -8 -5 4 -7 22 -10 42
-7 33 4 35 3 23 -13 -10 -12 -7 -11 10 3 l24 20 -6 -20 c-7 -18 -6 -19 6 -3 8
10 18 14 22 10 4 -4 2 3 -4 16 -12 23 -24 31 -16 9 4 -8 -6 -12 -29 -13 -20 0
-33 3 -30 7 5 8 -27 29 -43 29 -4 -1 2 -6 15 -13z"/>
<path d="M2430 2509 c0 -5 5 -7 10 -4 6 3 10 -3 10 -14 0 -12 4 -21 9 -21 12
0 9 33 -4 42 -14 11 -25 10 -25 -3z"/>
<path d="M2119 2497 c6 -8 7 -18 3 -23 -4 -4 1 -2 11 5 18 14 24 26 7 16 -5
-3 -10 -1 -10 4 0 6 -5 11 -11 11 -8 0 -9 -4 0 -13z"/>
<path d="M2210 2499 c0 -5 5 -7 10 -4 6 3 10 8 10 11 0 2 -4 4 -10 4 -5 0 -10
-5 -10 -11z"/>
<path d="M2630 2501 c0 -7 -4 -9 -10 -6 -5 3 -10 1 -10 -4 0 -6 4 -11 9 -11
13 0 25 20 17 27 -3 4 -6 1 -6 -6z"/>
<path d="M3445 2500 c-38 -4 -49 -9 -47 -20 10 -40 12 -64 15 -140 l2 -82 85
6 c47 3 95 5 106 6 20 0 21 4 17 92 -8 159 0 143 -68 143 -33 0 -82 -2 -110
-5z"/>
<path d="M860 2489 c-30 -4 -78 -10 -105 -13 -66 -7 -220 -39 -316 -65 -125
-33 -429 -148 -429 -161 0 -3 33 -17 73 -32 177 -67 333 -193 395 -321 l33
-67 42 30 c82 58 81 56 69 87 -43 111 -25 222 48 293 33 32 114 77 152 84 13
3 24 5 26 7 3 2 11 4 57 13 67 12 107 16 183 18 65 2 72 4 73 22 0 12 2 40 5
64 3 23 2 43 -3 43 -33 5 -258 3 -303 -2z"/>
<path d="M1656 2483 c-6 -14 -5 -15 5 -6 7 7 10 15 7 18 -3 3 -9 -2 -12 -12z"/>
<path d="M2160 2489 c0 -5 5 -7 10 -4 6 3 10 8 10 11 0 2 -4 4 -10 4 -5 0 -10
-5 -10 -11z"/>
<path d="M3173 2481 c0 -11 5 -18 9 -15 4 3 5 11 1 19 -7 21 -12 19 -10 -4z"/>
<path d="M1740 2461 c0 -6 -9 -8 -20 -6 -11 2 -18 0 -15 -5 7 -12 38 -6 43 8
2 7 1 12 -2 12 -3 0 -6 -4 -6 -9z"/>
<path d="M1780 2450 c0 -4 12 -12 28 -19 23 -10 25 -9 10 2 -10 8 -16 16 -13
19 3 2 -2 5 -10 5 -8 0 -15 -3 -15 -7z"/>
<path d="M3107 2449 c7 -7 15 -10 18 -7 3 3 -2 9 -12 12 -14 6 -15 5 -6 -5z"/>
<path d="M1633 2437 c0 -8 6 -14 14 -14 9 0 10 4 2 14 -6 7 -12 13 -14 13 -1
0 -2 -6 -2 -13z"/>
<path d="M2798 2443 c7 -3 16 -2 19 1 4 3 -2 6 -13 5 -11 0 -14 -3 -6 -6z"/>
<path d="M1680 2430 c-9 -6 -10 -10 -3 -10 6 0 15 5 18 10 8 12 4 12 -15 0z"/>
<path d="M3035 2432 c3 -3 -3 -15 -12 -26 -13 -15 -10 -14 10 3 32 29 31 28
12 28 -8 0 -13 -3 -10 -5z"/>
<path d="M2813 2408 c-2 -18 0 -20 7 -8 12 18 13 30 2 30 -4 0 -9 -10 -9 -22z"/>
<path d="M3074 2416 c1 -8 5 -18 8 -22 4 -3 5 1 4 10 -1 8 -5 18 -8 22 -4 3
-5 -1 -4 -10z"/>
<path d="M1574 2408 c-4 -7 -4 -10 1 -6 4 4 15 2 24 -5 14 -11 14 -10 2 6 -16
20 -18 21 -27 5z"/>
<path d="M1750 2410 c0 -5 5 -10 10 -10 6 0 10 5 10 10 0 6 -4 10 -10 10 -5 0
-10 -4 -10 -10z"/>
<path d="M1801 2404 c0 -11 3 -14 6 -6 3 7 2 16 -1 19 -3 4 -6 -2 -5 -13z"/>
<path d="M1735 2390 c6 -10 4 -12 -11 -6 -15 6 -17 5 -6 -5 9 -9 15 -10 23 -2
8 8 7 13 -2 18 -8 6 -10 4 -4 -5z"/>
<path d="M1917 2393 c-12 -11 -8 -25 5 -17 7 5 9 2 5 -9 -4 -11 -2 -14 9 -10
12 4 12 8 2 22 -7 9 -13 17 -14 19 0 1 -4 -1 -7 -5z"/>
<path d="M3176 2392 c-3 -4 4 -9 15 -9 23 -2 25 3 4 10 -8 4 -16 3 -19 -1z"/>
<path d="M1655 2379 c-4 -6 -5 -12 -2 -15 2 -3 7 2 10 11 7 17 1 20 -8 4z"/>
<path d="M1530 2371 c0 -6 4 -13 10 -16 6 -3 7 1 4 9 -7 18 -14 21 -14 7z"/>
<path d="M1576 2368 c3 -5 10 -6 15 -2 5 3 18 0 27 -8 15 -12 16 -11 4 4 -13
16 -56 22 -46 6z"/>
<path d="M1864 2372 c3 -5 0 -12 -6 -15 -7 -2 -10 -7 -7 -11 3 -4 12 0 18 8 9
11 9 16 0 22 -7 4 -9 3 -5 -4z"/>
<path d="M1890 2365 c0 -8 4 -15 10 -15 5 0 7 7 4 15 -4 8 -8 15 -10 15 -2 0
-4 -7 -4 -15z"/>
<path d="M2989 2367 c6 -8 9 -16 6 -19 -3 -2 2 -5 10 -5 13 0 13 3 -2 19 -19
21 -31 25 -14 5z"/>
<path d="M3033 2357 c0 -8 6 -14 14 -14 9 0 10 4 2 14 -6 7 -12 13 -14 13 -1
0 -2 -6 -2 -13z"/>
<path d="M1495 2351 c-3 -5 -2 -12 3 -15 5 -3 9 1 9 9 0 17 -3 19 -12 6z"/>
<path d="M1767 2333 c-5 -12 -13 -20 -17 -18 -4 3 -16 -7 -25 -21 -9 -15 -12
-24 -7 -20 6 3 13 2 17 -4 3 -5 12 -10 18 -10 8 0 8 3 2 8 -14 10 -19 46 -6
37 6 -3 16 4 22 17 13 30 49 36 44 7 -6 -29 -14 -39 -29 -33 -8 3 -17 1 -21
-5 -4 -7 1 -8 12 -4 16 6 16 5 4 -10 -7 -9 -10 -17 -5 -17 5 1 21 17 36 37 21
27 25 39 17 49 -16 19 -50 12 -62 -13z"/>
<path d="M3109 2333 c-13 -16 -12 -17 4 -4 9 7 17 15 17 17 0 8 -8 3 -21 -13z"/>
<path d="M3229 2333 c-13 -16 -12 -17 4 -4 9 7 17 15 17 17 0 8 -8 3 -21 -13z"/>
<path d="M1606 2328 c3 -5 10 -6 15 -3 13 9 11 12 -6 12 -8 0 -12 -4 -9 -9z"/>
<path d="M1673 2325 c0 -7 6 -11 14 -8 7 3 13 6 13 8 0 2 -6 5 -13 8 -8 3 -14
-1 -14 -8z"/>
<path d="M1716 2324 c-9 -24 -2 -26 12 -4 7 11 8 20 3 20 -5 0 -12 -7 -15 -16z"/>
<path d="M3075 2331 c-3 -5 -2 -12 3 -15 5 -3 9 1 9 9 0 17 -3 19 -12 6z"/>
<path d="M985 2302 c-37 -5 -45 -16 -39 -61 2 -20 5 -69 6 -109 l3 -73 95 5
c52 3 101 5 108 5 10 1 12 18 7 79 -4 42 -8 95 -9 117 l-2 40 -69 0 c-39 0
-83 -2 -100 -3z"/>
<path d="M1613 2287 c0 -12 1 -17 4 -10 2 7 11 9 19 6 8 -3 14 1 14 8 0 7 -3
9 -7 6 -3 -4 -11 -3 -17 3 -8 6 -12 2 -13 -13z"/>
<path d="M1470 2296 c0 -2 7 -7 16 -10 8 -3 12 -2 9 4 -6 10 -25 14 -25 6z"/>
<path d="M1676 2275 c-9 -26 -7 -32 5 -12 6 10 9 21 6 23 -2 3 -7 -2 -11 -11z"/>
<path d="M2950 2286 c0 -2 8 -10 18 -17 15 -13 16 -12 3 4 -13 16 -21 21 -21
13z"/>
<path d="M2993 2275 c0 -8 4 -12 9 -9 5 3 6 10 3 15 -9 13 -12 11 -12 -6z"/>
<path d="M3126 2268 c3 -5 10 -6 15 -3 13 9 11 12 -6 12 -8 0 -12 -4 -9 -9z"/>
<path d="M3176 2268 c3 -5 10 -6 15 -3 13 9 11 12 -6 12 -8 0 -12 -4 -9 -9z"/>
<path d="M2840 2262 c0 -7 7 -15 17 -19 14 -5 13 -8 -7 -15 -16 -6 -21 -14
-17 -28 4 -14 0 -20 -11 -20 -15 0 -15 -2 -2 -10 16 -10 13 -12 -19 -14 -11 0
-23 -5 -28 -10 -4 -5 -3 -7 2 -3 6 3 17 -3 23 -14 11 -17 10 -20 -4 -17 -9 2
-18 -3 -20 -10 -1 -7 0 -8 2 -3 3 6 12 7 20 4 10 -4 12 -8 5 -12 -6 -4 -12
-19 -13 -33 -1 -15 -6 -24 -10 -22 -5 3 -5 10 -2 16 4 7 2 8 -4 4 -9 -5 -9
-13 -2 -27 13 -23 2 -25 -15 -2 -9 13 -14 13 -20 3 -6 -9 -4 -11 5 -5 9 6 10
1 5 -16 -4 -17 -3 -20 3 -10 13 18 19 4 21 -46 1 -36 -2 -41 -17 -37 -16 5
-16 5 1 -6 20 -13 24 -76 5 -83 -8 -3 -5 -6 6 -6 15 -1 16 -4 7 -15 -9 -11 -9
-16 0 -22 8 -5 9 -3 4 6 -5 9 -4 11 3 6 7 -4 12 -16 12 -27 0 -10 5 -19 10
-19 6 0 10 -7 10 -16 0 -8 5 -12 10 -9 6 4 11 -6 11 -22 1 -20 3 -23 6 -9 5
19 6 19 22 -2 9 -12 27 -24 40 -27 13 -2 30 -10 38 -16 18 -16 77 -18 95 -5
13 11 20 88 7 80 -5 -3 -15 28 -19 61 -1 3 -7 23 -15 45 -11 30 -11 40 -2 40
9 0 9 2 0 8 -7 4 -15 19 -17 32 -2 14 -5 25 -6 25 -1 0 -3 7 -5 15 -2 8 -7 26
-11 39 -6 19 -4 23 7 17 8 -4 7 -1 -3 6 -18 16 -26 57 -14 76 4 8 3 11 -5 10
-7 -2 -19 24 -30 67 -21 81 -19 73 -19 84 0 5 -9 7 -21 4 -12 -4 -25 0 -30 8
-6 11 -9 11 -9 1z m-25 -122 c3 -5 1 -10 -4 -10 -6 0 -11 5 -11 10 0 6 2 10 4
10 3 0 8 -4 11 -10z"/>
<path d="M1436 2248 c3 -5 10 -6 15 -3 13 9 11 12 -6 12 -8 0 -12 -4 -9 -9z"/>
<path d="M1480 2250 c-9 -6 -10 -10 -3 -10 6 0 15 5 18 10 8 12 4 12 -15 0z"/>
<path d="M1616 2249 c3 -5 9 -7 14 -4 4 3 11 0 13 -5 3 -6 4 -5 3 1 -1 7 -10
13 -19 15 -9 1 -15 -2 -11 -7z"/>
<path d="M1690 2250 c0 -5 5 -10 10 -10 6 0 10 5 10 10 0 6 -4 10 -10 10 -5 0
-10 -4 -10 -10z"/>
<path d="M1794 2248 c-5 -7 -3 -8 6 -3 10 6 12 4 7 -9 -4 -10 -3 -15 3 -11 13
8 13 35 1 35 -6 0 -13 -5 -17 -12z"/>
<path d="M2618 2252 c-2 -4 14 -25 36 -47 23 -24 33 -31 25 -16 -18 31 -58 72
-61 63z"/>
<path d="M2640 2253 c0 -1 9 -7 20 -13 14 -7 26 -8 39 0 13 7 22 7 26 0 3 -5
1 -10 -4 -10 -6 0 -11 -5 -11 -11 0 -8 5 -7 16 2 14 11 15 10 12 -7 -1 -10 -7
-22 -13 -26 -6 -5 -6 -8 2 -8 6 0 15 5 18 10 4 6 10 8 14 6 4 -3 8 1 8 9 0 8
-2 13 -5 10 -2 -2 -12 6 -22 17 -13 16 -29 22 -59 23 -22 1 -41 0 -41 -2z"/>
<path d="M2756 2252 c-2 -4 4 -13 15 -20 22 -14 25 -7 5 14 -8 8 -17 11 -20 6z"/>
<path d="M2916 2248 c3 -5 9 -6 14 -3 4 3 10 0 12 -7 3 -8 6 -7 10 3 4 11 -1
15 -17 15 -13 0 -21 -4 -19 -8z"/>
<path d="M3033 2245 c0 -8 4 -12 9 -9 5 3 6 10 3 15 -9 13 -12 11 -12 -6z"/>
<path d="M1758 2243 c7 -3 16 -2 19 1 4 3 -2 6 -13 5 -11 0 -14 -3 -6 -6z"/>
<path d="M2990 2246 c0 -2 8 -10 18 -17 15 -13 16 -12 3 4 -13 16 -21 21 -21
13z"/>
<path d="M1545 2230 c-3 -6 1 -7 9 -4 18 7 21 14 7 14 -6 0 -13 -4 -16 -10z"/>
<path d="M1713 2225 c-3 -9 -3 -19 1 -22 8 -9 37 18 30 28 -8 14 -24 11 -31
-6z m27 1 c0 -3 -4 -8 -10 -11 -5 -3 -10 -1 -10 4 0 6 5 11 10 11 6 0 10 -2
10 -4z"/>
<path d="M1569 2213 c-8 -9 -9 -14 -2 -10 6 4 13 1 16 -5 3 -7 4 -3 4 10 -1
26 -1 26 -18 5z"/>
<path d="M2973 2217 c0 -7 9 -14 20 -14 11 -1 18 -1 16 0 -2 2 -11 8 -20 15
-12 9 -16 9 -16 -1z"/>
<path d="M1416 2212 c-2 -4 -1 -14 4 -22 7 -11 9 -9 7 8 -1 24 -3 26 -11 14z"/>
<path d="M1496 2203 c-6 -14 -5 -15 5 -6 7 7 10 15 7 18 -3 3 -9 -2 -12 -12z"/>
<path d="M1640 2205 c-19 -22 -8 -25 13 -3 9 10 13 18 8 18 -5 0 -14 -7 -21
-15z"/>
<path d="M2686 2211 c-3 -5 1 -14 9 -21 10 -9 15 -9 15 -1 0 6 -5 11 -11 11
-5 0 -7 5 -4 10 3 6 4 10 1 10 -3 0 -7 -4 -10 -9z"/>
<path d="M1671 2201 c-22 -14 -21 -51 1 -62 11 -6 22 -8 26 -5 3 3 0 6 -7 6
-7 0 -9 4 -6 10 3 5 0 7 -7 5 -9 -4 -14 2 -14 15 0 13 5 19 14 15 7 -2 11 -1
7 4 -3 5 1 12 7 14 7 3 9 6 3 6 -5 0 -16 -3 -24 -8z"/>
<path d="M2790 2200 c0 -5 5 -10 10 -10 6 0 10 5 10 10 0 6 -4 10 -10 10 -5 0
-10 -4 -10 -10z"/>
<path d="M2620 2190 c0 -5 7 -7 15 -4 8 4 15 8 15 10 0 2 -7 4 -15 4 -8 0 -15
-4 -15 -10z"/>
<path d="M3135 2190 c3 -5 8 -10 11 -10 2 0 4 5 4 10 0 6 -5 10 -11 10 -5 0
-7 -4 -4 -10z"/>
<path d="M1610 2181 c0 -10 19 -25 25 -20 1 2 -3 10 -11 17 -8 7 -14 8 -14 3z"/>
<path d="M1702 2170 c0 -14 2 -19 5 -12 2 6 2 18 0 25 -3 6 -5 1 -5 -13z"/>
<path d="M2525 2181 c-4 -7 0 -8 11 -4 11 4 15 3 11 -4 -4 -6 0 -19 9 -28 15
-14 14 -18 -10 -40 -15 -14 -23 -25 -18 -25 11 0 52 39 52 50 0 5 -7 15 -15
24 -9 8 -15 19 -15 23 2 12 -18 15 -25 4z"/>
<path d="M2570 2183 c1 -12 26 -43 35 -43 5 0 17 -7 27 -17 10 -9 18 -12 18
-7 0 5 -16 19 -36 32 -19 12 -32 27 -29 32 3 6 1 10 -4 10 -6 0 -11 -3 -11 -7z"/>
<path d="M2600 2181 c0 -6 4 -13 10 -16 6 -3 7 1 4 9 -7 18 -14 21 -14 7z"/>
<path d="M2635 2169 c-4 -6 -4 -13 -1 -16 3 -4 6 -1 6 5 0 7 4 12 10 12 5 0 7
-8 3 -17 -5 -14 -3 -15 7 -6 7 6 9 16 6 22 -9 14 -23 14 -31 0z"/>
<path d="M2737 2168 c-7 -5 0 -6 17 -4 16 3 31 7 33 10 8 8 -37 2 -50 -6z"/>
<path d="M2950 2173 c0 -6 8 -17 18 -24 16 -13 16 -13 2 6 -8 11 -16 22 -17
24 -2 2 -3 0 -3 -6z"/>
<path d="M1593 2153 c4 -3 1 -13 -6 -22 -11 -14 -10 -14 6 -2 20 15 22 31 5
31 -6 0 -8 -3 -5 -7z"/>
<path d="M2675 2140 c-7 -23 1 -40 18 -40 8 0 8 3 -2 9 -8 5 -11 16 -6 30 3
11 4 21 1 21 -2 0 -7 -9 -11 -20z"/>
<path d="M3190 2149 c0 -5 5 -7 10 -4 6 3 10 8 10 11 0 2 -4 4 -10 4 -5 0 -10
-5 -10 -11z"/>
<path d="M2700 2135 c-9 -10 -9 -15 -1 -15 6 0 11 5 11 11 0 5 5 7 10 4 6 -3
10 -1 10 4 0 16 -16 13 -30 -4z"/>
<path d="M2750 2135 c0 -8 4 -15 10 -15 5 0 7 7 4 15 -4 8 -8 15 -10 15 -2 0
-4 -7 -4 -15z"/>
<path d="M1390 2131 c0 -6 4 -13 10 -16 6 -3 7 1 4 9 -7 18 -14 21 -14 7z"/>
<path d="M1631 2130 c-9 -5 -4 -7 13 -7 29 0 32 2 13 10 -8 3 -20 2 -26 -3z"/>
<path d="M2600 2112 c20 -9 23 -45 3 -38 -8 3 -11 1 -8 -4 3 -6 1 -10 -6 -10
-7 0 -10 -3 -7 -6 13 -12 47 16 41 33 -5 12 -3 14 8 8 12 -8 12 -6 0 8 -7 9
-21 17 -30 16 -14 0 -14 -1 -1 -7z"/>
<path d="M2720 2108 c-12 -8 -11 -9 3 -4 14 5 18 1 15 -16 -2 -11 3 -22 10
-24 7 -1 8 0 3 2 -5 3 -7 13 -4 23 6 23 -8 33 -27 19z"/>
<path d="M1582 2090 c0 -14 2 -19 5 -12 2 6 2 18 0 25 -3 6 -5 1 -5 -13z"/>
<path d="M1632 2094 c-7 -8 -8 -14 -3 -14 10 0 25 19 20 25 -2 1 -10 -3 -17
-11z"/>
<path d="M1750 2092 c0 -5 7 -9 15 -9 8 0 15 4 15 9 0 4 -7 8 -15 8 -8 0 -15
-4 -15 -8z"/>
<path d="M2571 2083 c-5 -10 -13 -17 -18 -15 -12 5 -16 -29 -5 -40 6 -6 8 0 4
18 -3 16 -1 25 5 21 5 -3 17 3 26 14 9 10 13 19 7 19 -5 0 -13 -8 -19 -17z"/>
<path d="M2650 2090 c0 -5 5 -10 10 -10 6 0 10 5 10 10 0 6 -4 10 -10 10 -5 0
-10 -4 -10 -10z"/>
<path d="M3095 2081 c-3 -5 -2 -12 3 -15 5 -3 9 1 9 9 0 17 -3 19 -12 6z"/>
<path d="M1593 2062 c-8 -14 -8 -19 1 -19 7 0 13 9 13 19 1 10 1 18 0 18 -1 0
-7 -8 -14 -18z"/>
<path d="M2695 2071 c-3 -5 0 -13 6 -17 7 -4 9 -3 5 4 -3 5 0 13 6 15 9 4 10
6 1 6 -6 1 -14 -3 -18 -8z"/>
<path d="M3055 2070 c-3 -5 -1 -10 4 -10 6 0 11 5 11 10 0 6 -2 10 -4 10 -3 0
-8 -4 -11 -10z"/>
<path d="M1753 2056 c3 -8 0 -20 -6 -27 -7 -8 0 -3 16 10 15 14 27 25 27 26 0
0 -9 1 -21 2 -13 1 -19 -3 -16 -11z"/>
<path d="M2637 2063 c-4 -3 -7 -11 -7 -17 0 -6 5 -5 12 2 6 6 9 14 7 17 -3 3
-9 2 -12 -2z"/>
<path d="M2673 2044 c0 -17 2 -22 7 -13 5 6 6 18 3 26 -8 19 -10 16 -10 -13z"/>
<path d="M1526 2049 c3 -5 9 -7 14 -4 5 3 13 -3 19 -12 6 -10 11 -13 11 -6 0
13 -17 26 -38 29 -6 1 -10 -2 -6 -7z"/>
<path d="M1628 2053 c7 -3 16 -2 19 1 4 3 -2 6 -13 5 -11 0 -14 -3 -6 -6z"/>
<path d="M2716 2045 c-9 -26 -7 -32 5 -12 6 10 9 21 6 23 -2 3 -7 -2 -11 -11z"/>
<path d="M2976 2048 c3 -5 10 -6 15 -3 13 9 11 12 -6 12 -8 0 -12 -4 -9 -9z"/>
<path d="M1678 2043 c7 -3 16 -2 19 1 4 3 -2 6 -13 5 -11 0 -14 -3 -6 -6z"/>
<path d="M2500 2035 c-9 -10 -9 -15 -1 -15 6 0 11 5 11 11 0 5 5 7 12 3 7 -4
8 -3 4 4 -9 15 -11 15 -26 -3z"/>
<path d="M3382 2030 c-1 -8 -4 -24 -6 -35 -2 -11 -5 -26 -5 -33 -1 -7 -5 -11
-9 -8 -5 3 -8 -5 -7 -17 1 -12 -3 -31 -9 -42 -5 -11 -11 -22 -11 -25 0 -3 -12
-27 -25 -55 -13 -27 -24 -52 -24 -55 -3 -13 -63 -109 -90 -145 -60 -78 -192
-215 -208 -215 -4 0 -22 -13 -40 -30 -18 -16 -37 -30 -42 -30 -5 0 -17 -6 -25
-14 -28 -25 -159 -87 -244 -115 -81 -28 -82 -28 -82 -62 -1 -63 39 -260 65
-324 62 -153 125 -253 206 -330 51 -49 173 -129 182 -120 3 2 -16 27 -41 55
-130 145 -202 315 -214 505 l-5 80 80 47 c181 108 372 265 471 388 l20 25 -11
-40 c-58 -220 -221 -468 -405 -617 l-61 -50 30 -66 c17 -37 35 -71 39 -76 14
-16 175 122 276 236 106 121 199 270 257 417 59 147 77 222 94 399 l7 67 46
-43 c116 -106 188 -339 202 -654 2 -26 5 -50 9 -53 3 -3 16 27 28 67 42 137
34 373 -20 553 -12 39 -23 75 -24 80 -10 34 -69 170 -102 237 -19 37 -34 78
-34 90 0 23 -1 23 -133 23 -111 0 -133 -3 -135 -15z"/>
<path d="M1613 2027 c-3 -5 -2 -11 1 -14 3 -4 6 -1 6 6 0 7 4 10 8 7 4 -2 14
-1 22 4 11 7 9 9 -8 7 -13 -1 -26 -5 -29 -10z"/>
<path d="M2568 2017 c-5 -10 -7 -21 -5 -24 3 -2 8 4 11 14 3 10 15 19 26 20
13 1 18 -2 14 -9 -4 -7 -2 -8 5 -4 6 4 9 11 6 16 -9 15 -46 6 -57 -13z"/>
<path d="M3010 2029 c0 -5 5 -7 10 -4 6 3 10 8 10 11 0 2 -4 4 -10 4 -5 0 -10
-5 -10 -11z"/>
<path d="M1580 2027 c0 -18 22 -47 31 -41 13 8 7 -28 -6 -39 -6 -5 -4 -7 5 -4
15 4 21 42 7 42 -5 0 -15 11 -22 25 -8 14 -14 21 -15 17z"/>
<path d="M1670 2025 c0 -5 5 -17 10 -25 5 -8 10 -10 10 -5 0 6 -5 17 -10 25
-5 8 -10 11 -10 5z"/>
<path d="M2415 2020 c3 -5 8 -10 11 -10 2 0 4 5 4 10 0 6 -5 10 -11 10 -5 0
-7 -4 -4 -10z"/>
<path d="M1108 2014 c-2 -1 -25 -5 -53 -8 -261 -35 -508 -169 -625 -341 -25
-38 -60 -103 -60 -113 0 -3 22 16 49 41 147 138 375 230 557 226 39 -1 42 -4
74 -58 18 -31 38 -59 44 -63 6 -4 8 -8 3 -8 -7 0 131 -194 176 -247 12 -14 45
-48 74 -76 28 -28 49 -55 46 -60 -3 -6 -2 -7 4 -4 5 3 25 -7 44 -24 l34 -29
-38 14 c-20 8 -41 15 -45 16 -51 3 -236 96 -350 177 -66 47 -185 160 -241 229
l-33 42 -67 -31 c-36 -16 -70 -34 -75 -38 -18 -16 130 -184 257 -292 235 -199
493 -309 782 -333 39 -3 72 -8 73 -9 2 -2 -15 -24 -37 -48 -90 -98 -302 -174
-533 -192 -152 -12 -171 -14 -175 -19 -3 -2 28 -14 69 -27 139 -41 372 -33
553 21 39 12 75 23 80 24 6 2 19 7 30 11 11 5 41 16 67 26 26 10 83 37 127 59
45 22 91 40 104 40 22 0 22 1 22 133 0 111 -2 133 -15 134 -36 2 -161 44 -212
70 -15 7 -31 14 -35 14 -5 0 -15 6 -23 13 -8 6 -32 21 -52 31 -21 11 -38 24
-38 29 0 5 -3 7 -6 3 -9 -8 -33 16 -26 27 3 5 0 6 -5 3 -14 -9 -104 63 -96 77
3 6 2 8 -2 3 -12 -10 -96 73 -88 87 3 6 3 8 -2 4 -4 -4 -13 -2 -19 5 -22 22
-96 124 -96 131 0 4 -7 14 -16 23 -8 9 -13 22 -10 30 3 8 2 12 -2 9 -12 -7
-44 63 -36 76 4 7 2 8 -4 4 -11 -6 -16 6 -13 27 0 4 -4 7 -9 7 -6 0 -9 3 -8 8
1 4 -3 16 -9 27 -5 11 -9 30 -8 42 1 12 -2 20 -6 17 -4 -2 -11 11 -15 31 -6
33 -8 35 -45 33 -21 -1 -40 -2 -41 -4z"/>
<path d="M1497 2003 c3 -7 6 -13 8 -13 2 0 5 6 8 13 3 8 -1 14 -8 14 -7 0 -11
-6 -8 -14z"/>
<path d="M1650 2008 c0 -9 5 -20 10 -23 13 -8 13 5 0 25 -8 13 -10 13 -10 -2z"/>
<path d="M2531 2004 c11 -14 10 -15 -7 -12 -10 1 -22 8 -26 13 -5 6 -8 6 -8
-1 0 -6 10 -19 22 -30 12 -10 18 -14 15 -8 -4 7 0 14 8 18 16 6 10 36 -7 36
-6 0 -5 -7 3 -16z"/>
<path d="M2635 2011 c-3 -5 0 -13 6 -17 8 -5 9 -3 4 6 -6 9 -1 10 16 5 19 -5
21 -4 9 4 -19 13 -27 14 -35 2z"/>
<path d="M3053 1995 c0 -8 4 -12 9 -9 5 3 6 10 3 15 -9 13 -12 11 -12 -6z"/>
<path d="M2614 1992 c3 -5 0 -13 -6 -15 -9 -4 -10 -6 -1 -6 17 -1 25 16 12 25
-7 4 -9 3 -5 -4z"/>
<path d="M1484 1972 c23 -26 23 -26 23 -7 0 8 -3 13 -5 10 -3 -3 -12 1 -21 7
-10 8 -9 4 3 -10z"/>
<path d="M1374 1966 c1 -8 5 -18 8 -22 4 -3 5 1 4 10 -1 8 -5 18 -8 22 -4 3
-5 -1 -4 -10z"/>
<path d="M1570 1976 c0 -2 7 -7 16 -10 8 -3 12 -2 9 4 -6 10 -25 14 -25 6z"/>
<path d="M1641 1964 c0 -11 3 -14 6 -6 3 7 2 16 -1 19 -3 4 -6 -2 -5 -13z"/>
<path d="M2476 1965 c-9 -26 -7 -32 5 -12 6 10 9 21 6 23 -2 3 -7 -2 -11 -11z"/>
<path d="M2570 1970 c0 -5 5 -10 10 -10 6 0 10 5 10 10 0 6 -4 10 -10 10 -5 0
-10 -4 -10 -10z"/>
<path d="M2634 1969 c-4 -7 -3 -9 4 -5 5 3 13 0 15 -6 4 -9 6 -10 6 -1 1 17
-16 25 -25 12z"/>
<path d="M2680 1970 c-12 -7 -10 -9 8 -7 12 0 22 5 22 9 0 11 -12 10 -30 -2z"/>
<path d="M1560 1956 c0 -2 7 -7 16 -10 8 -3 12 -2 9 4 -6 10 -25 14 -25 6z"/>
<path d="M2495 1949 c-4 -6 -4 -13 -1 -16 3 -4 6 -1 6 6 0 7 5 9 12 5 7 -4 8
-3 4 4 -9 15 -13 15 -21 1z"/>
<path d="M2382 1941 c-11 -7 -11 -9 1 -14 16 -6 27 0 27 15 0 10 -11 10 -28
-1z"/>
<path d="M2591 1943 c-1 -17 16 -25 25 -12 4 7 3 9 -4 5 -5 -3 -13 0 -15 6 -4
9 -6 10 -6 1z"/>
<path d="M1496 1923 c-6 -14 -5 -15 5 -6 7 7 10 15 7 18 -3 3 -9 -2 -12 -12z"/>
<path d="M1566 1927 c3 -10 9 -15 12 -12 3 3 0 11 -7 18 -10 9 -11 8 -5 -6z"/>
<path d="M2265 1923 c-5 -10 -9 -20 -9 -23 -1 -3 -8 -16 -15 -29 -8 -14 -9
-21 -2 -17 18 11 13 -2 -11 -29 -21 -25 -56 -36 -42 -13 4 7 3 8 -5 4 -13 -9
-5 -26 12 -26 24 0 68 51 62 71 -9 27 19 35 51 14 15 -9 23 -12 20 -6 -4 6 -2
11 3 11 6 0 11 4 11 9 0 5 -11 8 -25 5 -16 -3 -23 0 -21 8 1 7 1 10 -1 6 -3
-5 -12 -8 -20 -8 -13 0 -13 3 -3 15 7 9 11 18 8 21 -3 3 -9 -3 -13 -13z"/>
<path d="M2436 1932 c-2 -4 0 -14 6 -22 8 -12 9 -11 4 3 -5 15 -2 17 17 12 17
-5 19 -4 7 4 -18 13 -27 14 -34 3z"/>
<path d="M2530 1925 c0 -8 2 -15 4 -15 2 0 6 7 10 15 3 8 1 15 -4 15 -6 0 -10
-7 -10 -15z"/>
<path d="M2557 1923 c-10 -10 -8 -23 4 -23 5 0 7 5 3 12 -5 8 -2 9 10 5 10 -4
15 -3 11 3 -7 12 -19 13 -28 3z"/>
<path d="M1374 1906 c1 -8 5 -18 8 -22 4 -3 5 1 4 10 -1 8 -5 18 -8 22 -4 3
-5 -1 -4 -10z"/>
<path d="M1590 1910 c0 -5 7 -7 15 -4 8 4 15 8 15 10 0 2 -7 4 -15 4 -8 0 -15
-4 -15 -10z"/>
<path d="M2355 1909 c-4 -6 -4 -13 -1 -16 3 -3 1 -14 -4 -24 -6 -10 -6 -20 -2
-23 8 -5 12 8 13 47 0 13 4 15 18 7 12 -6 22 -5 29 2 8 8 11 5 9 -11 -1 -15
-7 -21 -22 -19 -15 2 -20 -3 -20 -21 0 -15 6 -25 18 -27 9 -1 15 2 11 7 -3 5
-10 7 -15 4 -5 -4 -9 2 -9 13 0 13 7 18 21 18 14 -1 23 6 25 18 4 28 -5 39
-21 26 -9 -8 -15 -8 -20 0 -8 13 -22 13 -30 -1z"/>
<path d="M2494 1912 c5 -8 -1 -12 -16 -13 -18 -1 -19 -2 -4 -6 23 -6 43 12 25
22 -8 5 -10 4 -5 -3z"/>
<path d="M2599 1905 c-1 -3 -2 -8 -3 -12 -1 -5 -4 -13 -8 -18 -4 -6 2 -11 12
-11 14 0 16 4 10 17 -5 9 -6 19 -3 23 3 3 3 6 0 6 -4 0 -8 -2 -8 -5z"/>
<path d="M2651 1901 c-19 -12 -22 -38 -5 -38 10 0 11 4 5 10 -7 7 -5 15 7 23
19 15 14 18 -7 5z"/>
<path d="M2695 1900 c3 -4 14 -10 25 -13 11 -3 18 -2 15 3 -3 4 -14 10 -25 13
-11 3 -18 2 -15 -3z"/>
<path d="M1490 1891 c0 -6 4 -13 10 -16 6 -3 7 1 4 9 -7 18 -14 21 -14 7z"/>
<path d="M2521 1886 c-9 -10 -8 -15 3 -19 11 -4 13 -1 9 10 -5 12 -3 14 7 8 9
-5 11 -4 6 3 -9 15 -11 15 -25 -2z"/>
<path d="M2673 1877 c0 -8 6 -14 14 -14 9 0 10 4 2 14 -6 7 -12 13 -14 13 -1
0 -2 -6 -2 -13z"/>
<path d="M2270 1875 c0 -10 30 -37 30 -28 0 4 5 0 11 -10 6 -9 15 -14 21 -11
7 5 9 1 5 -9 -3 -10 -2 -17 4 -17 6 0 9 8 7 18 -2 9 -10 16 -16 15 -7 -2 -12
1 -12 6 0 5 -11 16 -25 25 -14 9 -25 14 -25 11z"/>
<path d="M2729 1853 c-13 -16 -12 -17 4 -4 16 13 21 21 13 21 -2 0 -10 -8 -17
-17z"/>
<path d="M1484 1852 c4 -3 14 -7 22 -8 9 -1 13 0 10 4 -4 3 -14 7 -22 8 -9 1
-13 0 -10 -4z"/>
<path d="M2420 1850 c-9 -6 -10 -10 -3 -10 6 0 15 5 18 10 8 12 4 12 -15 0z"/>
<path d="M2470 1852 c0 -4 9 -8 20 -9 11 -1 20 2 20 5 0 4 -9 8 -20 9 -11 1
-20 -2 -20 -5z"/>
<path d="M2262 1819 c-13 -20 -7 -43 8 -34 5 3 10 -3 13 -12 3 -14 4 -13 3 2
-1 11 -7 19 -15 17 -7 -1 -11 3 -9 10 3 7 13 15 23 16 10 3 15 0 11 -7 -4 -6
-2 -11 3 -11 17 0 13 18 -7 29 -14 7 -21 5 -30 -10z"/>
<path d="M2550 1826 c7 -7 13 -7 20 0 6 6 3 10 -10 10 -13 0 -16 -4 -10 -10z"/>
<path d="M2595 1832 c3 -3 -1 -12 -7 -21 -8 -10 -4 -9 10 3 26 23 26 23 7 23
-8 0 -13 -3 -10 -5z"/>
<path d="M2635 1832 c3 -3 0 -10 -5 -17 -7 -8 -5 -12 5 -12 8 0 13 3 10 5 -3
3 0 10 5 17 7 8 5 12 -5 12 -8 0 -13 -3 -10 -5z"/>
<path d="M2430 1819 c0 -5 5 -7 10 -4 6 3 10 8 10 11 0 2 -4 4 -10 4 -5 0 -10
-5 -10 -11z"/>
<path d="M1375 1810 c-3 -5 -1 -10 4 -10 6 0 11 5 11 10 0 6 -2 10 -4 10 -3 0
-8 -4 -11 -10z"/>
<path d="M2531 1804 c0 -11 3 -14 6 -6 3 7 2 16 -1 19 -3 4 -6 -2 -5 -13z"/>
<path d="M2679 1818 c-5 -18 -6 -38 -1 -34 7 8 12 36 6 36 -2 0 -4 -1 -5 -2z"/>
<path d="M2390 1806 c0 -2 9 -6 20 -9 11 -3 18 -1 14 4 -5 9 -34 13 -34 5z"/>
<path d="M2233 1770 c0 -23 3 -28 9 -16 5 9 5 23 0 32 -6 12 -9 7 -9 -16z"/>
<path d="M2310 1780 c0 -5 7 -7 15 -4 8 4 15 8 15 10 0 2 -7 4 -15 4 -8 0 -15
-4 -15 -10z"/>
<path d="M2388 1783 c7 -3 16 -2 19 1 4 3 -2 6 -13 5 -11 0 -14 -3 -6 -6z"/>
<path d="M2575 1779 c-4 -6 -5 -12 -2 -15 2 -3 7 2 10 11 7 17 1 20 -8 4z"/>
<path d="M2616 1777 c3 -10 9 -15 12 -12 3 3 0 11 -7 18 -10 9 -11 8 -5 -6z"/>
<path d="M2200 1770 c0 -5 5 -10 10 -10 6 0 10 5 10 10 0 6 -4 10 -10 10 -5 0
-10 -4 -10 -10z"/>
<path d="M2474 1751 c0 -16 4 -27 8 -25 4 2 5 14 3 26 -7 32 -13 32 -11 -1z"/>
<path d="M2126 1732 c11 -23 19 -29 36 -24 16 4 19 2 13 -8 -5 -9 -4 -11 4 -6
17 11 2 29 -20 23 -11 -3 -19 0 -19 8 0 7 -7 18 -15 25 -13 10 -13 8 1 -18z"/>
<path d="M2247 1740 c-9 -11 -13 -20 -7 -20 5 0 14 9 20 20 6 11 9 20 8 20 -2
0 -11 -9 -21 -20z"/>
<path d="M2394 1736 c1 -8 5 -18 8 -22 4 -3 5 1 4 10 -1 8 -5 18 -8 22 -4 3
-5 -1 -4 -10z"/>
<path d="M2553 1735 c0 -8 4 -12 9 -9 5 3 6 10 3 15 -9 13 -12 11 -12 -6z"/>
<path d="M1386 1732 c-3 -5 1 -9 9 -9 8 0 12 4 9 9 -3 4 -7 8 -9 8 -2 0 -6 -4
-9 -8z"/>
<path d="M2069 1727 c11 -13 17 -15 28 -6 7 7 11 15 7 18 -4 3 -9 0 -11 -7 -4
-10 -8 -10 -21 0 -15 12 -16 11 -3 -5z"/>
<path d="M2190 1730 c0 -5 7 -7 15 -4 8 4 15 8 15 10 0 2 -7 4 -15 4 -8 0 -15
-4 -15 -10z"/>
<path d="M2310 1729 c0 -5 5 -7 10 -4 6 3 10 8 10 11 0 2 -4 4 -10 4 -5 0 -10
-5 -10 -11z"/>
<path d="M2670 1736 c0 -2 7 -7 16 -10 8 -3 12 -2 9 4 -6 10 -25 14 -25 6z"/>
<path d="M2050 1710 c0 -5 5 -10 11 -10 5 0 7 5 4 10 -3 6 -8 10 -11 10 -2 0
-4 -4 -4 -10z"/>
<path d="M2110 1713 c0 -6 8 -17 18 -24 16 -13 16 -13 2 6 -8 11 -16 22 -17
24 -2 2 -3 0 -3 -6z"/>
<path d="M2212 1715 c4 -4 0 -14 -10 -21 -9 -7 -12 -14 -6 -14 6 0 17 6 23 14
9 11 9 16 -1 22 -7 4 -10 4 -6 -1z"/>
<path d="M2256 1712 c-6 -10 5 -26 20 -29 6 -1 11 4 11 12 0 7 -7 11 -15 7
-10 -3 -13 -1 -8 6 4 7 5 12 2 12 -3 0 -7 -4 -10 -8z"/>
<path d="M2426 1708 c3 -4 9 -8 15 -8 5 0 9 4 9 8 0 5 -7 9 -15 9 -8 0 -12 -4
-9 -9z"/>
<path d="M2710 1715 c0 -7 30 -13 34 -7 3 4 -4 9 -15 9 -10 1 -19 0 -19 -2z"/>
<path d="M2374 1696 c1 -8 5 -18 8 -22 4 -3 5 1 4 10 -1 8 -5 18 -8 22 -4 3
-5 -1 -4 -10z"/>
<path d="M1985 1690 c-3 -5 -1 -10 4 -10 6 0 11 5 11 10 0 6 -2 10 -4 10 -3 0
-8 -4 -11 -10z"/>
<path d="M2017 1686 c-3 -8 -3 -17 0 -20 10 -10 33 -7 33 4 0 5 -8 6 -17 3
-16 -6 -16 -5 -4 10 7 9 9 17 3 17 -5 0 -12 -6 -15 -14z"/>
<path d="M2090 1680 c9 -17 30 -20 30 -4 0 3 -4 2 -10 -1 -5 -3 -10 1 -10 9 0
9 -5 16 -10 16 -7 0 -7 -7 0 -20z"/>
<path d="M2339 1683 c-13 -16 -12 -17 4 -4 9 7 17 15 17 17 0 8 -8 3 -21 -13z"/>
<path d="M2510 1686 c7 -7 13 -7 20 0 6 6 3 10 -10 10 -13 0 -16 -4 -10 -10z"/>
<path d="M2766 1692 c-3 -5 1 -9 9 -9 8 0 12 4 9 9 -3 4 -7 8 -9 8 -2 0 -6 -4
-9 -8z"/>
<path d="M2146 1673 c-6 -14 -5 -15 5 -6 7 7 10 15 7 18 -3 3 -9 -2 -12 -12z"/>
<path d="M1902 1668 c-15 -15 -16 -35 -2 -43 6 -3 7 1 4 10 -4 8 -1 22 6 30
15 18 9 20 -8 3z"/>
<path d="M1950 1670 c0 -5 5 -10 10 -10 6 0 10 5 10 10 0 6 -4 10 -10 10 -5 0
-10 -4 -10 -10z"/>
<path d="M2630 1670 c0 -5 5 -10 11 -10 5 0 7 5 4 10 -3 6 -8 10 -11 10 -2 0
-4 -4 -4 -10z"/>
<path d="M2675 1670 c-3 -5 -1 -10 4 -10 6 0 11 5 11 10 0 6 -2 10 -4 10 -3 0
-8 -4 -11 -10z"/>
<path d="M2255 1659 c-4 -6 -14 -8 -24 -4 -13 5 -14 4 -3 -6 10 -11 15 -10 29
4 10 9 14 17 11 17 -4 0 -10 -5 -13 -11z"/>
<path d="M1915 1650 c-3 -6 1 -7 9 -4 18 7 21 14 7 14 -6 0 -13 -4 -16 -10z"/>
<path d="M1980 1656 c0 -2 9 -6 20 -9 11 -3 18 -1 14 4 -5 9 -34 13 -34 5z"/>
<path d="M2066 1652 c-2 -4 4 -8 14 -8 10 0 16 4 14 8 -3 4 -9 8 -14 8 -5 0
-11 -4 -14 -8z"/>
<path d="M2160 1650 c-9 -6 -10 -10 -3 -10 6 0 15 5 18 10 8 12 4 12 -15 0z"/>
<path d="M2353 1643 c0 -9 4 -10 14 -2 7 6 13 12 13 14 0 1 -6 2 -13 2 -8 0
-14 -6 -14 -14z"/>
<path d="M1950 1641 c0 -7 -5 -9 -12 -5 -7 5 -8 3 -3 -5 5 -9 10 -10 18 -2 6
6 8 14 4 18 -4 3 -7 1 -7 -6z"/>
<path d="M2193 1637 c0 -8 6 -14 14 -14 9 0 10 4 2 14 -6 7 -12 13 -14 13 -1
0 -2 -6 -2 -13z"/>
<path d="M2269 1633 c-13 -16 -12 -17 4 -4 9 7 17 15 17 17 0 8 -8 3 -21 -13z"/>
<path d="M1875 1618 c4 -13 11 -27 16 -33 5 -5 4 5 -2 23 -12 36 -24 44 -14
10z"/>
<path d="M1816 1618 c5 -8 1 -9 -12 -4 -10 4 -15 4 -11 0 4 -4 2 -12 -3 -19
-7 -8 -5 -12 5 -12 8 0 11 5 8 10 -4 6 1 8 11 4 9 -4 15 -3 11 2 -3 5 0 11 7
13 7 3 5 7 -6 11 -11 5 -15 3 -10 -5z"/>
<path d="M2085 1613 c-11 -25 -14 -63 -4 -58 4 3 6 13 4 23 -1 9 2 23 8 30 5
7 8 15 5 18 -3 3 -9 -3 -13 -13z"/>
<path d="M1960 1610 c-8 -5 -10 -10 -5 -10 6 0 17 5 25 10 8 5 11 10 5 10 -5
0 -17 -5 -25 -10z"/>
<path d="M2286 1608 c3 -5 10 -6 15 -3 13 9 11 12 -6 12 -8 0 -12 -4 -9 -9z"/>
<path d="M2396 1608 c3 -5 10 -6 15 -3 13 9 11 12 -6 12 -8 0 -12 -4 -9 -9z"/>
<path d="M2000 1599 c0 -5 -6 -7 -12 -3 -7 4 -9 3 -5 -1 13 -15 36 -14 30 1
-6 17 -13 18 -13 3z"/>
<path d="M1839 1590 c-1 -5 -2 -18 -3 -27 -1 -10 -5 -25 -10 -33 -7 -12 -6
-13 4 -3 13 12 24 73 14 73 -2 0 -5 -4 -5 -10z"/>
<path d="M2040 1590 c-9 -6 -10 -10 -3 -10 6 0 15 5 18 10 8 12 4 12 -15 0z"/>
<path d="M2161 1586 c-9 -11 -9 -16 1 -22 7 -4 10 -4 6 1 -4 4 -3 14 3 22 6 7
9 13 6 13 -2 0 -10 -6 -16 -14z"/>
<path d="M2330 1589 c0 -5 5 -7 10 -4 6 3 10 8 10 11 0 2 -4 4 -10 4 -5 0 -10
-5 -10 -11z"/>
<path d="M2366 1592 c-3 -5 1 -9 9 -9 8 0 12 4 9 9 -3 4 -7 8 -9 8 -2 0 -6 -4
-9 -8z"/>
<path d="M1756 1577 c3 -10 9 -15 12 -12 3 3 0 11 -7 18 -10 9 -11 8 -5 -6z"/>
<path d="M1616 1568 c3 -4 11 -5 19 -1 21 7 19 12 -4 10 -11 0 -18 -5 -15 -9z"/>
<path d="M1693 1564 c0 -9 4 -11 12 -4 7 5 14 9 16 7 2 -1 3 0 1 2 -7 11 -29
7 -29 -5z"/>
<path d="M1973 1567 c0 -7 9 -13 19 -13 10 0 18 1 18 3 0 1 -8 7 -18 12 -13 7
-19 6 -19 -2z"/>
<path d="M2195 1571 c-3 -5 -2 -12 3 -15 5 -3 9 1 9 9 0 17 -3 19 -12 6z"/>
<path d="M1869 1553 c-13 -16 -12 -17 4 -4 9 7 17 15 17 17 0 8 -8 3 -21 -13z"/>
<path d="M2029 1547 c6 -8 7 -18 3 -22 -4 -5 -1 -5 6 -1 10 6 10 11 1 22 -6 8
-14 14 -16 14 -3 0 0 -6 6 -13z"/>
<path d="M2110 1548 c0 -4 4 -8 9 -8 6 0 12 4 15 8 3 5 -1 9 -9 9 -8 0 -15 -4
-15 -9z"/>
<path d="M2335 1551 c-3 -5 -2 -12 3 -15 5 -3 9 1 9 9 0 17 -3 19 -12 6z"/>
<path d="M1775 1541 c-3 -5 -2 -12 3 -15 5 -3 9 1 9 9 0 17 -3 19 -12 6z"/>
<path d="M1926 1535 c-18 -14 -18 -14 1 -12 11 0 20 7 20 14 0 7 -1 13 -1 13
-1 0 -9 -7 -20 -15z"/>
<path d="M1695 1529 c-3 -4 2 -6 10 -5 21 3 28 13 10 13 -9 0 -18 -4 -20 -8z"/>
<path d="M1881 1526 c-9 -11 -9 -16 1 -22 7 -4 10 -4 6 1 -4 4 -3 14 3 22 6 7
9 13 6 13 -2 0 -10 -6 -16 -14z"/>
<path d="M2065 1530 c-3 -6 1 -7 9 -4 18 7 21 14 7 14 -6 0 -13 -4 -16 -10z"/>
<path d="M2259 1538 c-5 -18 -6 -38 -1 -34 7 8 12 36 6 36 -2 0 -4 -1 -5 -2z"/>
<path d="M1533 1505 c0 -8 4 -12 9 -9 5 3 6 10 3 15 -9 13 -12 11 -12 -6z"/>
<path d="M1916 1497 c3 -10 9 -15 12 -12 3 3 0 11 -7 18 -10 9 -11 8 -5 -6z"/>
<path d="M1796 1483 c-6 -14 -5 -15 5 -6 7 7 10 15 7 18 -3 3 -9 -2 -12 -12z"/>
<path d="M1826 1488 c3 -5 10 -6 15 -3 13 9 11 12 -6 12 -8 0 -12 -4 -9 -9z"/>
<path d="M1947 1489 c7 -7 15 -10 18 -7 3 3 -2 9 -12 12 -14 6 -15 5 -6 -5z"/>
<path d="M1650 1469 c0 -5 5 -7 10 -4 6 3 10 8 10 11 0 2 -4 4 -10 4 -5 0 -10
-5 -10 -11z"/>
<path d="M2116 1468 c3 -4 11 -5 19 -1 21 7 19 12 -4 10 -11 0 -18 -5 -15 -9z"/>
<path d="M1835 1461 c-3 -5 -2 -12 3 -15 5 -3 9 1 9 9 0 17 -3 19 -12 6z"/>
<path d="M1570 1451 c0 -6 4 -13 10 -16 6 -3 7 1 4 9 -7 18 -14 21 -14 7z"/>
<path d="M1695 1441 c-3 -5 -2 -12 3 -15 5 -3 9 1 9 9 0 17 -3 19 -12 6z"/>
<path d="M1645 1410 c-3 -6 1 -7 9 -4 18 7 21 14 7 14 -6 0 -13 -4 -16 -10z"/>
<path d="M1796 1405 c-9 -26 -7 -32 5 -12 6 10 9 21 6 23 -2 3 -7 -2 -11 -11z"/>
<path d="M2035 1410 c3 -5 8 -10 11 -10 2 0 4 5 4 10 0 6 -5 10 -11 10 -5 0
-7 -4 -4 -10z"/>
<path d="M2477 1174 c-7 -7 -48 -13 -134 -18 -76 -4 -97 -11 -87 -28 4 -5 8
-44 10 -86 3 -43 6 -82 8 -88 3 -7 25 -10 58 -8 29 1 81 4 116 6 l63 3 -6 90
c-3 49 -6 98 -6 107 0 19 -13 31 -22 22z"/>
<path d="M2077 1162 c-6 -12 -1 -263 7 -332 14 -126 38 -254 66 -355 6 -22 13
-49 15 -60 18 -79 143 -405 156 -405 3 0 13 24 23 53 40 114 145 280 218 342
33 29 126 85 141 85 6 0 18 4 26 9 14 9 5 25 -75 129 -1 2 -23 -4 -49 -13
-101 -34 -200 -17 -265 46 -84 82 -126 222 -131 435 -1 30 -5 56 -8 59 -14 8
-120 15 -124 7z"/>
</g>
</svg>
